<svg id="visual" viewBox="0 0 606 60" width="606" height="60" xmlns="http://www.w3.org/2000/svg" xmlns:xlink="http://www.w3.org/1999/xlink" version="1.1"><rect x="0" y="0" width="606" height="60" fill="#640095"></rect><defs><linearGradient id="grad1_0" x1="90.1%" y1="0%" x2="100%" y2="100%"><stop offset="-152%" stop-color="#f700ff" stop-opacity="1"></stop><stop offset="252%" stop-color="#f700ff" stop-opacity="1"></stop></linearGradient></defs><defs><linearGradient id="grad1_1" x1="90.1%" y1="0%" x2="100%" y2="100%"><stop offset="-152%" stop-color="#f700ff" stop-opacity="1"></stop><stop offset="252%" stop-color="#cf06e6" stop-opacity="1"></stop></linearGradient></defs><defs><linearGradient id="grad1_2" x1="90.1%" y1="0%" x2="100%" y2="100%"><stop offset="-152%" stop-color="#a906cb" stop-opacity="1"></stop><stop offset="252%" stop-color="#cf06e6" stop-opacity="1"></stop></linearGradient></defs><defs><linearGradient id="grad1_3" x1="90.1%" y1="0%" x2="100%" y2="100%"><stop offset="-152%" stop-color="#a906cb" stop-opacity="1"></stop><stop offset="252%" stop-color="#8603b0" stop-opacity="1"></stop></linearGradient></defs><defs><linearGradient id="grad1_4" x1="90.1%" y1="0%" x2="100%" y2="100%"><stop offset="-152%" stop-color="#640095" stop-opacity="1"></stop><stop offset="252%" stop-color="#8603b0" stop-opacity="1"></stop></linearGradient></defs><defs><linearGradient id="grad2_0" x1="0%" y1="0%" x2="9.9%" y2="100%"><stop offset="-152%" stop-color="#f700ff" stop-opacity="1"></stop><stop offset="252%" stop-color="#f700ff" stop-opacity="1"></stop></linearGradient></defs><defs><linearGradient id="grad2_1" x1="0%" y1="0%" x2="9.9%" y2="100%"><stop offset="-152%" stop-color="#cf06e6" stop-opacity="1"></stop><stop offset="252%" stop-color="#f700ff" stop-opacity="1"></stop></linearGradient></defs><defs><linearGradient id="grad2_2" x1="0%" y1="0%" x2="9.9%" y2="100%"><stop offset="-152%" stop-color="#cf06e6" stop-opacity="1"></stop><stop offset="252%" stop-color="#a906cb" stop-opacity="1"></stop></linearGradient></defs><defs><linearGradient id="grad2_3" x1="0%" y1="0%" x2="9.9%" y2="100%"><stop offset="-152%" stop-color="#8603b0" stop-opacity="1"></stop><stop offset="252%" stop-color="#a906cb" stop-opacity="1"></stop></linearGradient></defs><defs><linearGradient id="grad2_4" x1="0%" y1="0%" x2="9.9%" y2="100%"><stop offset="-152%" stop-color="#8603b0" stop-opacity="1"></stop><stop offset="252%" stop-color="#640095" stop-opacity="1"></stop></linearGradient></defs><g transform="translate(606, 0)"><path d="M0 60C-1.2 49.4 -2.5 38.8 -4.6 37.7C-6.7 36.7 -9.6 45.2 -11.7 47.6C-13.9 49.9 -15.2 46.1 -16.3 43C-17.4 40 -18.4 37.7 -18.1 34.5C-17.8 31.4 -16.3 27.3 -21 30.5C-25.7 33.6 -36.6 43.9 -39.8 44.9C-43 45.9 -38.6 37.7 -38.9 34.5C-39.3 31.2 -44.4 33 -46.1 31.8C-47.8 30.7 -46 26.6 -44.3 23.2C-42.5 19.8 -40.7 17.1 -39.3 14.9C-37.8 12.7 -36.6 11.1 -40.8 10.1C-44.9 9 -54.5 8.7 -58.6 7.1C-62.7 5.5 -61.3 2.8 -60 0L0 0Z" fill="#7502a3"></path><path d="M0 48C-1 39.5 -2 31 -3.7 30.2C-5.3 29.3 -7.7 36.2 -9.4 38.1C-11.1 39.9 -12.1 36.9 -13 34.4C-14 32 -14.7 30.2 -14.5 27.6C-14.3 25.1 -13.1 21.9 -16.8 24.4C-20.6 26.9 -29.3 35.1 -31.8 35.9C-34.4 36.8 -30.9 30.2 -31.1 27.6C-31.4 25 -35.5 26.4 -36.9 25.4C-38.2 24.5 -36.8 21.3 -35.4 18.6C-34 15.9 -32.6 13.7 -31.4 11.9C-30.2 10.2 -29.3 8.8 -32.6 8C-36 7.2 -43.6 6.9 -46.9 5.7C-50.1 4.4 -49.1 2.2 -48 0L0 0Z" fill="#9705be"></path><path d="M0 36C-0.7 29.6 -1.5 23.3 -2.7 22.6C-4 22 -5.8 27.1 -7 28.5C-8.3 30 -9.1 27.6 -9.8 25.8C-10.5 24 -11 22.6 -10.9 20.7C-10.7 18.8 -9.8 16.4 -12.6 18.3C-15.4 20.1 -21.9 26.3 -23.9 26.9C-25.8 27.6 -23.1 22.6 -23.4 20.7C-23.6 18.7 -26.6 19.8 -27.7 19.1C-28.7 18.4 -27.6 16 -26.6 13.9C-25.5 11.9 -24.4 10.3 -23.6 8.9C-22.7 7.6 -22 6.6 -24.5 6C-27 5.4 -32.7 5.2 -35.1 4.3C-37.6 3.3 -36.8 1.7 -36 0L0 0Z" fill="#bc06d8"></path><path d="M0 24C-0.5 19.8 -1 15.5 -1.8 15.1C-2.7 14.7 -3.8 18.1 -4.7 19C-5.5 20 -6.1 18.4 -6.5 17.2C-7 16 -7.4 15.1 -7.2 13.8C-7.1 12.6 -6.5 10.9 -8.4 12.2C-10.3 13.4 -14.6 17.5 -15.9 18C-17.2 18.4 -15.4 15.1 -15.6 13.8C-15.7 12.5 -17.8 13.2 -18.4 12.7C-19.1 12.3 -18.4 10.7 -17.7 9.3C-17 7.9 -16.3 6.8 -15.7 6C-15.1 5.1 -14.6 4.4 -16.3 4C-18 3.6 -21.8 3.5 -23.4 2.8C-25.1 2.2 -24.5 1.1 -24 0L0 0Z" fill="#e304f2"></path><path d="M0 12C-0.2 9.9 -0.5 7.8 -0.9 7.5C-1.3 7.3 -1.9 9 -2.3 9.5C-2.8 10 -3 9.2 -3.3 8.6C-3.5 8 -3.7 7.5 -3.6 6.9C-3.6 6.3 -3.3 5.5 -4.2 6.1C-5.1 6.7 -7.3 8.8 -8 9C-8.6 9.2 -7.7 7.5 -7.8 6.9C-7.9 6.2 -8.9 6.6 -9.2 6.4C-9.6 6.1 -9.2 5.3 -8.9 4.6C-8.5 4 -8.1 3.4 -7.9 3C-7.6 2.5 -7.3 2.2 -8.2 2C-9 1.8 -10.9 1.7 -11.7 1.4C-12.5 1.1 -12.3 0.6 -12 0L0 0Z" fill="#f700ff"></path></g><g transform="translate(0, 60)"><path d="M0 -60C2.8 -61.8 5.7 -63.6 7.2 -59.6C8.8 -55.5 9 -45.6 10.5 -42.7C12.1 -39.8 14.9 -44 17 -44.9C19.2 -45.8 20.6 -43.3 21.4 -40.7C22.1 -38.1 22.1 -35.3 24.4 -35.4C26.8 -35.5 31.4 -38.5 33.8 -38.2C36.2 -37.9 36.3 -34.3 33.7 -29.8C31 -25.4 25.6 -20.2 29.6 -20.5C33.6 -20.7 47 -26.3 48.7 -25.6C50.4 -24.8 40.3 -17.6 36.5 -13.8C32.6 -10 34.9 -9.6 35 -8.6C35 -7.6 32.9 -6 36.7 -4.5C40.5 -2.9 50.3 -1.5 60 0L0 0Z" fill="#7502a3"></path><path d="M0 -48C2.3 -49.4 4.6 -50.9 5.8 -47.7C7 -44.4 7.2 -36.5 8.4 -34.2C9.6 -31.9 11.9 -35.2 13.6 -35.9C15.3 -36.6 16.5 -34.7 17.1 -32.6C17.7 -30.5 17.7 -28.2 19.5 -28.3C21.4 -28.4 25.1 -30.8 27.1 -30.5C29 -30.3 29.1 -27.4 26.9 -23.9C24.8 -20.3 20.5 -16.2 23.7 -16.4C26.9 -16.5 37.6 -21.1 39 -20.4C40.3 -19.8 32.3 -14.1 29.2 -11.1C26.1 -8 27.9 -7.7 28 -6.9C28 -6.1 26.3 -4.8 29.4 -3.6C32.4 -2.3 40.2 -1.2 48 0L0 0Z" fill="#9705be"></path><path d="M0 -36C1.7 -37.1 3.4 -38.2 4.3 -35.7C5.3 -33.3 5.4 -27.4 6.3 -25.6C7.2 -23.9 8.9 -26.4 10.2 -26.9C11.5 -27.5 12.4 -26 12.8 -24.4C13.3 -22.9 13.3 -21.2 14.7 -21.2C16.1 -21.3 18.9 -23.1 20.3 -22.9C21.7 -22.7 21.8 -20.6 20.2 -17.9C18.6 -15.3 15.4 -12.1 17.8 -12.3C20.2 -12.4 28.2 -15.8 29.2 -15.3C30.2 -14.9 24.2 -10.6 21.9 -8.3C19.6 -6 20.9 -5.8 21 -5.2C21 -4.6 19.8 -3.6 22 -2.7C24.3 -1.8 30.2 -0.9 36 0L0 0Z" fill="#bc06d8"></path><path d="M0 -24C1.1 -24.7 2.3 -25.4 2.9 -23.8C3.5 -22.2 3.6 -18.2 4.2 -17.1C4.8 -15.9 5.9 -17.6 6.8 -18C7.7 -18.3 8.3 -17.3 8.6 -16.3C8.8 -15.2 8.8 -14.1 9.8 -14.2C10.7 -14.2 12.6 -15.4 13.5 -15.3C14.5 -15.1 14.5 -13.7 13.5 -11.9C12.4 -10.2 10.3 -8.1 11.9 -8.2C13.4 -8.3 18.8 -10.5 19.5 -10.2C20.2 -9.9 16.1 -7 14.6 -5.5C13 -4 13.9 -3.9 14 -3.4C14 -3 13.2 -2.4 14.7 -1.8C16.2 -1.2 20.1 -0.6 24 0L0 0Z" fill="#e304f2"></path><path d="M0 -12C0.6 -12.4 1.1 -12.7 1.4 -11.9C1.8 -11.1 1.8 -9.1 2.1 -8.5C2.4 -8 3 -8.8 3.4 -9C3.8 -9.2 4.1 -8.7 4.3 -8.1C4.4 -7.6 4.4 -7.1 4.9 -7.1C5.4 -7.1 6.3 -7.7 6.8 -7.6C7.2 -7.6 7.3 -6.9 6.7 -6C6.2 -5.1 5.1 -4 5.9 -4.1C6.7 -4.1 9.4 -5.3 9.7 -5.1C10.1 -5 8.1 -3.5 7.3 -2.8C6.5 -2 7 -1.9 7 -1.7C7 -1.5 6.6 -1.2 7.3 -0.9C8.1 -0.6 10.1 -0.3 12 0L0 0Z" fill="#f700ff"></path></g></svg>