<svg id="visual" viewBox="0 0 606 60" width="606" height="60" xmlns="http://www.w3.org/2000/svg" xmlns:xlink="http://www.w3.org/1999/xlink" version="1.1"><path d="M0 12L28 21L55 17L83 4L110 26L138 5L165 15L193 15L220 16L248 24L275 6L303 14L331 11L358 14L386 6L413 11L441 5L468 8L496 15L523 20L551 5L578 6L606 15L606 0L578 0L551 0L523 0L496 0L468 0L441 0L413 0L386 0L358 0L331 0L303 0L275 0L248 0L220 0L193 0L165 0L138 0L110 0L83 0L55 0L28 0L0 0Z" fill="#00cc8e"></path><path d="M0 15L28 26L55 21L83 9L110 30L138 9L165 19L193 20L220 18L248 26L275 7L303 17L331 12L358 14L386 12L413 15L441 6L468 8L496 16L523 21L551 11L578 8L606 18L606 13L578 4L551 3L523 18L496 13L468 6L441 3L413 9L386 4L358 12L331 9L303 12L275 4L248 22L220 14L193 13L165 13L138 3L110 24L83 2L55 15L28 19L0 10Z" fill="#00c48c"></path><path d="M0 23L28 32L55 26L83 10L110 33L138 15L165 23L193 24L220 22L248 28L275 8L303 21L331 16L358 21L386 18L413 17L441 11L468 14L496 18L523 24L551 17L578 10L606 20L606 16L578 6L551 9L523 19L496 14L468 6L441 4L413 13L386 10L358 12L331 10L303 15L275 5L248 24L220 16L193 18L165 17L138 7L110 28L83 7L55 19L28 24L0 13Z" fill="#00bc8a"></path><path d="M0 30L28 39L55 30L83 28L110 38L138 33L165 33L193 30L220 29L248 34L275 27L303 32L331 33L358 37L386 39L413 25L441 30L468 29L496 25L523 30L551 32L578 26L606 35L606 18L578 8L551 15L523 22L496 16L468 12L441 9L413 15L386 16L358 19L331 14L303 19L275 6L248 26L220 20L193 22L165 21L138 13L110 31L83 8L55 24L28 30L0 21Z" fill="#00b388"></path><path d="M0 39L28 42L55 39L83 35L110 44L138 35L165 44L193 31L220 33L248 41L275 35L303 44L331 38L358 41L386 45L413 32L441 33L468 36L496 36L523 34L551 36L578 27L606 41L606 33L578 24L551 30L523 28L496 23L468 27L441 28L413 23L386 37L358 35L331 31L303 30L275 25L248 32L220 27L193 28L165 31L138 31L110 36L83 26L55 28L28 37L0 28Z" fill="#00ab85"></path><path d="M0 41L28 49L55 48L83 41L110 45L138 40L165 45L193 38L220 39L248 47L275 40L303 46L331 41L358 44L386 50L413 38L441 34L468 41L496 42L523 43L551 42L578 35L606 51L606 39L578 25L551 34L523 32L496 34L468 34L441 31L413 30L386 43L358 39L331 36L303 42L275 33L248 39L220 31L193 29L165 42L138 33L110 42L83 33L55 37L28 40L0 37Z" fill="#00a382"></path><path d="M0 48L28 55L55 50L83 43L110 45L138 44L165 49L193 38L220 45L248 50L275 42L303 47L331 45L358 47L386 56L413 44L441 41L468 42L496 47L523 50L551 48L578 36L606 55L606 49L578 33L551 40L523 41L496 40L468 39L441 32L413 36L386 48L358 42L331 39L303 44L275 38L248 45L220 37L193 36L165 43L138 38L110 43L83 39L55 46L28 47L0 39Z" fill="#009b7f"></path><path d="M0 53L28 57L55 53L83 44L110 49L138 45L165 55L193 43L220 51L248 54L275 47L303 51L331 47L358 52L386 56L413 47L441 46L468 48L496 50L523 53L551 54L578 42L606 56L606 53L578 34L551 46L523 48L496 45L468 40L441 39L413 42L386 54L358 45L331 43L303 45L275 40L248 48L220 43L193 36L165 47L138 42L110 43L83 41L55 48L28 53L0 46Z" fill="#00937b"></path><path d="M0 60L28 59L55 58L83 56L110 56L138 59L165 60L193 57L220 58L248 56L275 56L303 58L331 58L358 59L386 60L413 59L441 60L468 60L496 59L523 59L551 60L578 56L606 59L606 54L578 40L551 52L523 51L496 48L468 46L441 44L413 45L386 54L358 50L331 45L303 49L275 45L248 52L220 49L193 41L165 53L138 43L110 47L83 42L55 51L28 55L0 51Z" fill="#008b77"></path><path d="M0 61L28 61L55 61L83 61L110 61L138 61L165 61L193 61L220 61L248 61L275 61L303 61L331 61L358 61L386 61L413 61L441 61L468 61L496 61L523 61L551 61L578 61L606 61L606 57L578 54L551 58L523 57L496 57L468 58L441 58L413 57L386 58L358 57L331 56L303 56L275 54L248 54L220 56L193 55L165 58L138 57L110 54L83 54L55 56L28 57L0 58Z" fill="#038373"></path></svg>