<svg id="visual" viewBox="0 0 606 60" width="606" height="60" xmlns="http://www.w3.org/2000/svg" xmlns:xlink="http://www.w3.org/1999/xlink" version="1.1"><path d="M0 5L26 5L26 4L53 4L53 4L79 4L79 4L105 4L105 5L132 5L132 4L158 4L158 3L184 3L184 3L211 3L211 5L237 5L237 3L263 3L263 5L290 5L290 6L316 6L316 5L343 5L343 5L369 5L369 3L395 3L395 6L422 6L422 4L448 4L448 4L474 4L474 4L501 4L501 6L527 6L527 6L553 6L553 5L580 5L580 5L606 5L606 5L606 0L606 0L580 0L580 0L553 0L553 0L527 0L527 0L501 0L501 0L474 0L474 0L448 0L448 0L422 0L422 0L395 0L395 0L369 0L369 0L343 0L343 0L316 0L316 0L290 0L290 0L263 0L263 0L237 0L237 0L211 0L211 0L184 0L184 0L158 0L158 0L132 0L132 0L105 0L105 0L79 0L79 0L53 0L53 0L26 0L26 0L0 0Z" fill="#000000"></path><path d="M0 9L26 9L26 7L53 7L53 6L79 6L79 7L105 7L105 9L132 9L132 7L158 7L158 6L184 6L184 6L211 6L211 7L237 7L237 6L263 6L263 8L290 8L290 9L316 9L316 8L343 8L343 9L369 9L369 7L395 7L395 9L422 9L422 7L448 7L448 7L474 7L474 8L501 8L501 10L527 10L527 10L553 10L553 8L580 8L580 8L606 8L606 8L606 3L606 3L580 3L580 3L553 3L553 4L527 4L527 4L501 4L501 2L474 2L474 2L448 2L448 2L422 2L422 4L395 4L395 1L369 1L369 3L343 3L343 3L316 3L316 4L290 4L290 3L263 3L263 1L237 1L237 3L211 3L211 1L184 1L184 1L158 1L158 2L132 2L132 3L105 3L105 2L79 2L79 2L53 2L53 2L26 2L26 3L0 3Z" fill="#770000"></path><path d="M0 25L26 25L26 17L53 17L53 20L79 20L79 22L105 22L105 25L132 25L132 18L158 18L158 14L184 14L184 14L211 14L211 18L237 18L237 17L263 17L263 18L290 18L290 24L316 24L316 17L343 17L343 18L369 18L369 18L395 18L395 17L422 17L422 21L448 21L448 18L474 18L474 18L501 18L501 26L527 26L527 19L553 19L553 17L580 17L580 27L606 27L606 18L606 6L606 6L580 6L580 6L553 6L553 8L527 8L527 8L501 8L501 6L474 6L474 5L448 5L448 5L422 5L422 7L395 7L395 5L369 5L369 7L343 7L343 6L316 6L316 7L290 7L290 6L263 6L263 4L237 4L237 5L211 5L211 4L184 4L184 4L158 4L158 5L132 5L132 7L105 7L105 5L79 5L79 4L53 4L53 5L26 5L26 7L0 7Z" fill="#ae0101"></path><path d="M0 28L26 28L26 20L53 20L53 23L79 23L79 26L105 26L105 27L132 27L132 21L158 21L158 15L184 15L184 17L211 17L211 20L237 20L237 20L263 20L263 21L290 21L290 28L316 28L316 19L343 19L343 20L369 20L369 22L395 22L395 18L422 18L422 23L448 23L448 21L474 21L474 21L501 21L501 29L527 29L527 22L553 22L553 18L580 18L580 29L606 29L606 20L606 16L606 25L580 25L580 15L553 15L553 17L527 17L527 24L501 24L501 16L474 16L474 16L448 16L448 19L422 19L422 15L395 15L395 16L369 16L369 16L343 16L343 15L316 15L316 22L290 22L290 16L263 16L263 15L237 15L237 16L211 16L211 12L184 12L184 12L158 12L158 16L132 16L132 23L105 23L105 20L79 20L79 18L53 18L53 15L26 15L26 23L0 23Z" fill="#df0a01"></path><path d="M0 36L26 36L26 29L53 29L53 34L79 34L79 34L105 34L105 32L132 32L132 30L158 30L158 25L184 25L184 24L211 24L211 25L237 25L237 28L263 28L263 26L290 26L290 37L316 37L316 24L343 24L343 25L369 25L369 30L395 30L395 24L422 24L422 30L448 30L448 25L474 25L474 27L501 27L501 36L527 36L527 27L553 27L553 26L580 26L580 34L606 34L606 31L606 18L606 27L580 27L580 16L553 16L553 20L527 20L527 27L501 27L501 19L474 19L474 19L448 19L448 21L422 21L422 16L395 16L395 20L369 20L369 18L343 18L343 17L316 17L316 26L290 26L290 19L263 19L263 18L237 18L237 18L211 18L211 15L184 15L184 13L158 13L158 19L132 19L132 25L105 25L105 24L79 24L79 21L53 21L53 18L26 18L26 26L0 26Z" fill="#fd1100"></path><path d="M0 39L26 39L26 33L53 33L53 37L79 37L79 38L105 38L105 36L132 36L132 33L158 33L158 32L184 32L184 29L211 29L211 30L237 30L237 32L263 32L263 29L290 29L290 43L316 43L316 30L343 30L343 28L369 28L369 33L395 33L395 28L422 28L422 34L448 34L448 32L474 32L474 33L501 33L501 39L527 39L527 30L553 30L553 29L580 29L580 39L606 39L606 36L606 29L606 32L580 32L580 24L553 24L553 25L527 25L527 34L501 34L501 25L474 25L474 23L448 23L448 28L422 28L422 22L395 22L395 28L369 28L369 23L343 23L343 22L316 22L316 35L290 35L290 24L263 24L263 26L237 26L237 23L211 23L211 22L184 22L184 23L158 23L158 28L132 28L132 30L105 30L105 32L79 32L79 32L53 32L53 27L26 27L26 34L0 34Z" fill="#fd1100"></path><path d="M0 44L26 44L26 36L53 36L53 41L79 41L79 40L105 40L105 40L132 40L132 36L158 36L158 36L184 36L184 31L211 31L211 33L237 33L237 35L263 35L263 32L290 32L290 45L316 45L316 35L343 35L343 31L369 31L369 36L395 36L395 30L422 30L422 38L448 38L448 36L474 36L474 37L501 37L501 41L527 41L527 35L553 35L553 33L580 33L580 44L606 44L606 39L606 34L606 37L580 37L580 27L553 27L553 28L527 28L527 37L501 37L501 31L474 31L474 30L448 30L448 32L422 32L422 26L395 26L395 31L369 31L369 26L343 26L343 28L316 28L316 41L290 41L290 27L263 27L263 30L237 30L237 28L211 28L211 27L184 27L184 30L158 30L158 31L132 31L132 34L105 34L105 36L79 36L79 35L53 35L53 31L26 31L26 37L0 37Z" fill="#df0a01"></path><path d="M0 51L26 51L26 50L53 50L53 48L79 48L79 52L105 52L105 52L132 52L132 48L158 48L158 50L184 50L184 51L211 51L211 47L237 47L237 52L263 52L263 47L290 47L290 54L316 54L316 53L343 53L343 54L369 54L369 53L395 53L395 48L422 48L422 51L448 51L448 50L474 50L474 53L501 53L501 51L527 51L527 53L553 53L553 51L580 51L580 53L606 53L606 52L606 37L606 42L580 42L580 31L553 31L553 33L527 33L527 39L501 39L501 35L474 35L474 34L448 34L448 36L422 36L422 28L395 28L395 34L369 34L369 29L343 29L343 33L316 33L316 43L290 43L290 30L263 30L263 33L237 33L237 31L211 31L211 29L184 29L184 34L158 34L158 34L132 34L132 38L105 38L105 38L79 38L79 39L53 39L53 34L26 34L26 42L0 42Z" fill="#ae0101"></path><path d="M0 58L26 58L26 59L53 59L53 57L79 57L79 58L105 58L105 57L132 57L132 55L158 55L158 57L184 57L184 57L211 57L211 55L237 55L237 58L263 58L263 55L290 55L290 58L316 58L316 57L343 57L343 57L369 57L369 59L395 59L395 56L422 56L422 55L448 55L448 55L474 55L474 58L501 58L501 58L527 58L527 58L553 58L553 57L580 57L580 57L606 57L606 58L606 50L606 51L580 51L580 49L553 49L553 51L527 51L527 49L501 49L501 51L474 51L474 48L448 48L448 49L422 49L422 46L395 46L395 51L369 51L369 52L343 52L343 51L316 51L316 52L290 52L290 45L263 45L263 50L237 50L237 45L211 45L211 49L184 49L184 48L158 48L158 46L132 46L132 50L105 50L105 50L79 50L79 46L53 46L53 48L26 48L26 49L0 49Z" fill="#770000"></path><path d="M0 61L26 61L26 61L53 61L53 61L79 61L79 61L105 61L105 61L132 61L132 61L158 61L158 61L184 61L184 61L211 61L211 61L237 61L237 61L263 61L263 61L290 61L290 61L316 61L316 61L343 61L343 61L369 61L369 61L395 61L395 61L422 61L422 61L448 61L448 61L474 61L474 61L501 61L501 61L527 61L527 61L553 61L553 61L580 61L580 61L606 61L606 61L606 56L606 55L580 55L580 55L553 55L553 56L527 56L527 56L501 56L501 56L474 56L474 53L448 53L448 53L422 53L422 54L395 54L395 57L369 57L369 55L343 55L343 55L316 55L316 56L290 56L290 53L263 53L263 56L237 56L237 53L211 53L211 55L184 55L184 55L158 55L158 53L132 53L132 55L105 55L105 56L79 56L79 55L53 55L53 57L26 57L26 56L0 56Z" fill="#000000"></path></svg>