<svg id="visual" viewBox="0 0 606 60" width="606" height="60" xmlns="http://www.w3.org/2000/svg" xmlns:xlink="http://www.w3.org/1999/xlink" version="1.1"><rect x="0" y="0" width="606" height="60" fill="#000000"></rect><defs><linearGradient id="grad1_0" x1="90.1%" y1="0%" x2="100%" y2="100%"><stop offset="-152%" stop-color="#f7770f" stop-opacity="1"></stop><stop offset="252%" stop-color="#f7770f" stop-opacity="1"></stop></linearGradient></defs><defs><linearGradient id="grad1_1" x1="90.1%" y1="0%" x2="100%" y2="100%"><stop offset="-152%" stop-color="#f7770f" stop-opacity="1"></stop><stop offset="252%" stop-color="#b33f00" stop-opacity="1"></stop></linearGradient></defs><defs><linearGradient id="grad1_2" x1="90.1%" y1="0%" x2="100%" y2="100%"><stop offset="-152%" stop-color="#740000" stop-opacity="1"></stop><stop offset="252%" stop-color="#b33f00" stop-opacity="1"></stop></linearGradient></defs><defs><linearGradient id="grad1_3" x1="90.1%" y1="0%" x2="100%" y2="100%"><stop offset="-152%" stop-color="#740000" stop-opacity="1"></stop><stop offset="252%" stop-color="#000000" stop-opacity="1"></stop></linearGradient></defs><defs><linearGradient id="grad2_0" x1="0%" y1="0%" x2="9.9%" y2="100%"><stop offset="-152%" stop-color="#f7770f" stop-opacity="1"></stop><stop offset="252%" stop-color="#f7770f" stop-opacity="1"></stop></linearGradient></defs><defs><linearGradient id="grad2_1" x1="0%" y1="0%" x2="9.9%" y2="100%"><stop offset="-152%" stop-color="#b33f00" stop-opacity="1"></stop><stop offset="252%" stop-color="#f7770f" stop-opacity="1"></stop></linearGradient></defs><defs><linearGradient id="grad2_2" x1="0%" y1="0%" x2="9.9%" y2="100%"><stop offset="-152%" stop-color="#b33f00" stop-opacity="1"></stop><stop offset="252%" stop-color="#740000" stop-opacity="1"></stop></linearGradient></defs><defs><linearGradient id="grad2_3" x1="0%" y1="0%" x2="9.9%" y2="100%"><stop offset="-152%" stop-color="#000000" stop-opacity="1"></stop><stop offset="252%" stop-color="#740000" stop-opacity="1"></stop></linearGradient></defs><g transform="translate(606, 0)"><path d="M0 60C-1.8 54.9 -3.7 49.7 -6 49.6C-8.4 49.5 -11.2 54.5 -13.9 56.3C-16.5 58.1 -19 56.8 -20.6 54.2C-22.1 51.6 -22.7 47.7 -23.7 45.2C-24.7 42.6 -26.2 41.5 -28.4 41.1C-30.6 40.8 -33.6 41.3 -36.5 41.2C-39.4 41 -42.2 40.3 -42.7 37.8C-43.1 35.3 -41.1 31.1 -42 29C-42.8 26.9 -46.6 26.9 -49.6 26C-52.6 25.2 -54.9 23.4 -56.1 21.3C-57.4 19.1 -57.6 16.5 -56.3 13.9C-55 11.3 -52.3 8.7 -52.6 6.4C-53 4.1 -56.5 2 -60 0L0 0Z" fill="#580000"></path><path d="M0 45C-1.4 41.1 -2.8 37.3 -4.5 37.2C-6.3 37.2 -8.4 40.9 -10.4 42.2C-12.4 43.6 -14.3 42.6 -15.4 40.7C-16.6 38.7 -17 35.8 -17.8 33.9C-18.5 32 -19.6 31.1 -21.3 30.9C-23 30.6 -25.2 31 -27.4 30.9C-29.5 30.8 -31.7 30.2 -32 28.3C-32.3 26.5 -30.8 23.3 -31.5 21.7C-32.1 20.1 -34.9 20.2 -37.2 19.5C-39.4 18.9 -41.1 17.6 -42.1 16C-43 14.3 -43.2 12.4 -42.2 10.4C-41.3 8.5 -39.2 6.5 -39.5 4.8C-39.7 3.1 -42.4 1.5 -45 0L0 0Z" fill="#922200"></path><path d="M0 30C-0.9 27.4 -1.8 24.9 -3 24.8C-4.2 24.8 -5.6 27.2 -6.9 28.2C-8.3 29.1 -9.5 28.4 -10.3 27.1C-11 25.8 -11.3 23.8 -11.9 22.6C-12.4 21.3 -13.1 20.7 -14.2 20.6C-15.3 20.4 -16.8 20.7 -18.2 20.6C-19.7 20.5 -21.1 20.1 -21.3 18.9C-21.5 17.7 -20.6 15.5 -21 14.5C-21.4 13.4 -23.3 13.4 -24.8 13C-26.3 12.6 -27.4 11.7 -28.1 10.6C-28.7 9.6 -28.8 8.2 -28.2 6.9C-27.5 5.6 -26.1 4.3 -26.3 3.2C-26.5 2 -28.2 1 -30 0L0 0Z" fill="#d45b00"></path><path d="M0 15C-0.5 13.7 -0.9 12.4 -1.5 12.4C-2.1 12.4 -2.8 13.6 -3.5 14.1C-4.1 14.5 -4.8 14.2 -5.1 13.6C-5.5 12.9 -5.7 11.9 -5.9 11.3C-6.2 10.7 -6.5 10.4 -7.1 10.3C-7.7 10.2 -8.4 10.3 -9.1 10.3C-9.8 10.3 -10.6 10.1 -10.7 9.4C-10.8 8.8 -10.3 7.8 -10.5 7.2C-10.7 6.7 -11.6 6.7 -12.4 6.5C-13.1 6.3 -13.7 5.9 -14 5.3C-14.3 4.8 -14.4 4.1 -14.1 3.5C-13.8 2.8 -13.1 2.2 -13.2 1.6C-13.2 1 -14.1 0.5 -15 0L0 0Z" fill="#f7770f"></path></g><g transform="translate(0, 60)"><path d="M0 -60C2.5 -60.3 5 -60.5 7.2 -59.6C9.5 -58.6 11.6 -56.5 13.4 -54.4C15.2 -52.3 16.8 -50.2 18.4 -48.6C20.1 -47 21.8 -45.9 23.7 -45.2C25.6 -44.4 27.8 -43.9 29.5 -42.8C31.3 -41.7 32.7 -39.9 33.8 -38.2C35 -36.4 35.9 -34.7 38.2 -33.8C40.5 -33 44.2 -33 45.3 -31.2C46.3 -29.5 44.6 -26 46 -24.2C47.5 -22.4 52.1 -22.3 55.2 -20.9C58.3 -19.6 59.9 -17 57.3 -14.1C54.7 -11.3 47.9 -8.2 47.7 -5.8C47.4 -3.4 53.7 -1.7 60 0L0 0Z" fill="#580000"></path><path d="M0 -45C1.9 -45.2 3.7 -45.4 5.4 -44.7C7.1 -44 8.7 -42.4 10.1 -40.8C11.4 -39.2 12.6 -37.7 13.8 -36.5C15.1 -35.3 16.3 -34.5 17.8 -33.9C19.2 -33.3 20.8 -32.9 22.2 -32.1C23.5 -31.3 24.5 -29.9 25.4 -28.6C26.2 -27.3 26.9 -26 28.6 -25.4C30.4 -24.7 33.2 -24.7 33.9 -23.4C34.7 -22.1 33.4 -19.5 34.5 -18.1C35.6 -16.8 39.1 -16.7 41.4 -15.7C43.7 -14.7 44.9 -12.7 43 -10.6C41 -8.5 35.9 -6.1 35.7 -4.3C35.6 -2.5 40.3 -1.3 45 0L0 0Z" fill="#922200"></path><path d="M0 -30C1.2 -30.1 2.5 -30.3 3.6 -29.8C4.8 -29.3 5.8 -28.2 6.7 -27.2C7.6 -26.1 8.4 -25.1 9.2 -24.3C10 -23.5 10.9 -23 11.9 -22.6C12.8 -22.2 13.9 -22 14.8 -21.4C15.7 -20.8 16.3 -20 16.9 -19.1C17.5 -18.2 17.9 -17.3 19.1 -16.9C20.2 -16.5 22.1 -16.5 22.6 -15.6C23.1 -14.7 22.3 -13 23 -12.1C23.7 -11.2 26 -11.1 27.6 -10.5C29.1 -9.8 29.9 -8.5 28.6 -7.1C27.3 -5.6 23.9 -4.1 23.8 -2.9C23.7 -1.7 26.9 -0.8 30 0L0 0Z" fill="#d45b00"></path><path d="M0 -15C0.6 -15.1 1.2 -15.1 1.8 -14.9C2.4 -14.7 2.9 -14.1 3.4 -13.6C3.8 -13.1 4.2 -12.6 4.6 -12.2C5 -11.8 5.4 -11.5 5.9 -11.3C6.4 -11.1 6.9 -11 7.4 -10.7C7.8 -10.4 8.2 -10 8.5 -9.5C8.7 -9.1 9 -8.7 9.5 -8.5C10.1 -8.2 11.1 -8.2 11.3 -7.8C11.6 -7.4 11.1 -6.5 11.5 -6C11.9 -5.6 13 -5.6 13.8 -5.2C14.6 -4.9 15 -4.2 14.3 -3.5C13.7 -2.8 12 -2 11.9 -1.4C11.9 -0.8 13.4 -0.4 15 0L0 0Z" fill="#f7770f"></path></g></svg>