<svg id="visual" viewBox="0 0 606 60" width="606" height="60" xmlns="http://www.w3.org/2000/svg" xmlns:xlink="http://www.w3.org/1999/xlink" version="1.1"><path d="M0 3L26 3L26 5L53 5L53 4L79 4L79 3L105 3L105 5L132 5L132 4L158 4L158 3L184 3L184 5L211 5L211 5L237 5L237 3L263 3L263 3L290 3L290 3L316 3L316 5L343 5L343 5L369 5L369 3L395 3L395 5L422 5L422 4L448 4L448 3L474 3L474 5L501 5L501 5L527 5L527 3L553 3L553 3L580 3L580 5L606 5L606 3L606 0L606 0L580 0L580 0L553 0L553 0L527 0L527 0L501 0L501 0L474 0L474 0L448 0L448 0L422 0L422 0L395 0L395 0L369 0L369 0L343 0L343 0L316 0L316 0L290 0L290 0L263 0L263 0L237 0L237 0L211 0L211 0L184 0L184 0L158 0L158 0L132 0L132 0L105 0L105 0L79 0L79 0L53 0L53 0L26 0L26 0L0 0Z" fill="#fd1100"></path><path d="M0 9L26 9L26 8L53 8L53 9L79 9L79 10L105 10L105 11L132 11L132 11L158 11L158 9L184 9L184 10L211 10L211 11L237 11L237 9L263 9L263 6L290 6L290 6L316 6L316 9L343 9L343 9L369 9L369 6L395 6L395 11L422 11L422 7L448 7L448 10L474 10L474 8L501 8L501 9L527 9L527 6L553 6L553 7L580 7L580 8L606 8L606 8L606 1L606 3L580 3L580 1L553 1L553 1L527 1L527 3L501 3L501 3L474 3L474 1L448 1L448 2L422 2L422 3L395 3L395 1L369 1L369 3L343 3L343 3L316 3L316 1L290 1L290 1L263 1L263 1L237 1L237 3L211 3L211 3L184 3L184 1L158 1L158 2L132 2L132 3L105 3L105 1L79 1L79 2L53 2L53 3L26 3L26 1L0 1Z" fill="#e90c00"></path><path d="M0 16L26 16L26 18L53 18L53 15L79 15L79 15L105 15L105 20L132 20L132 19L158 19L158 18L184 18L184 17L211 17L211 16L237 16L237 17L263 17L263 18L290 18L290 17L316 17L316 15L343 15L343 20L369 20L369 16L395 16L395 18L422 18L422 13L448 13L448 17L474 17L474 12L501 12L501 20L527 20L527 12L553 12L553 12L580 12L580 15L606 15L606 18L606 6L606 6L580 6L580 5L553 5L553 4L527 4L527 7L501 7L501 6L474 6L474 8L448 8L448 5L422 5L422 9L395 9L395 4L369 4L369 7L343 7L343 7L316 7L316 4L290 4L290 4L263 4L263 7L237 7L237 9L211 9L211 8L184 8L184 7L158 7L158 9L132 9L132 9L105 9L105 8L79 8L79 7L53 7L53 6L26 6L26 7L0 7Z" fill="#d50701"></path><path d="M0 24L26 24L26 23L53 23L53 22L79 22L79 22L105 22L105 25L132 25L132 24L158 24L158 27L184 27L184 23L211 23L211 23L237 23L237 21L263 21L263 22L290 22L290 21L316 21L316 21L343 21L343 24L369 24L369 24L395 24L395 26L422 26L422 20L448 20L448 21L474 21L474 20L501 20L501 24L527 24L527 17L553 17L553 19L580 19L580 23L606 23L606 23L606 16L606 13L580 13L580 10L553 10L553 10L527 10L527 18L501 18L501 10L474 10L474 15L448 15L448 11L422 11L422 16L395 16L395 14L369 14L369 18L343 18L343 13L316 13L316 15L290 15L290 16L263 16L263 15L237 15L237 14L211 14L211 15L184 15L184 16L158 16L158 17L132 17L132 18L105 18L105 13L79 13L79 13L53 13L53 16L26 16L26 14L0 14Z" fill="#c20401"></path><path d="M0 31L26 31L26 33L53 33L53 36L79 36L79 34L105 34L105 36L132 36L132 38L158 38L158 41L184 41L184 33L211 33L211 30L237 30L237 32L263 32L263 35L290 35L290 37L316 37L316 40L343 40L343 32L369 32L369 38L395 38L395 39L422 39L422 35L448 35L448 38L474 38L474 27L501 27L501 39L527 39L527 34L553 34L553 36L580 36L580 37L606 37L606 37L606 21L606 21L580 21L580 17L553 17L553 15L527 15L527 22L501 22L501 18L474 18L474 19L448 19L448 18L422 18L422 24L395 24L395 22L369 22L369 22L343 22L343 19L316 19L316 19L290 19L290 20L263 20L263 19L237 19L237 21L211 21L211 21L184 21L184 25L158 25L158 22L132 22L132 23L105 23L105 20L79 20L79 20L53 20L53 21L26 21L26 22L0 22Z" fill="#ae0101"></path><path d="M0 37L26 37L26 38L53 38L53 41L79 41L79 38L105 38L105 41L132 41L132 40L158 40L158 44L184 44L184 36L211 36L211 35L237 35L237 37L263 37L263 38L290 38L290 40L316 40L316 42L343 42L343 35L369 35L369 43L395 43L395 42L422 42L422 39L448 39L448 42L474 42L474 33L501 33L501 42L527 42L527 38L553 38L553 41L580 41L580 41L606 41L606 40L606 35L606 35L580 35L580 34L553 34L553 32L527 32L527 37L501 37L501 25L474 25L474 36L448 36L448 33L422 33L422 37L395 37L395 36L369 36L369 30L343 30L343 38L316 38L316 35L290 35L290 33L263 33L263 30L237 30L237 28L211 28L211 31L184 31L184 39L158 39L158 36L132 36L132 34L105 34L105 32L79 32L79 34L53 34L53 31L26 31L26 29L0 29Z" fill="#990000"></path><path d="M0 41L26 41L26 42L53 42L53 44L79 44L79 41L105 41L105 44L132 44L132 44L158 44L158 47L184 47L184 40L211 40L211 39L237 39L237 40L263 40L263 43L290 43L290 42L316 42L316 45L343 45L343 39L369 39L369 48L395 48L395 47L422 47L422 44L448 44L448 47L474 47L474 38L501 38L501 46L527 46L527 42L553 42L553 45L580 45L580 44L606 44L606 44L606 38L606 39L580 39L580 39L553 39L553 36L527 36L527 40L501 40L501 31L474 31L474 40L448 40L448 37L422 37L422 40L395 40L395 41L369 41L369 33L343 33L343 40L316 40L316 38L290 38L290 36L263 36L263 35L237 35L237 33L211 33L211 34L184 34L184 42L158 42L158 38L132 38L132 39L105 39L105 36L79 36L79 39L53 39L53 36L26 36L26 35L0 35Z" fill="#820000"></path><path d="M0 42L26 42L26 45L53 45L53 47L79 47L79 44L105 44L105 47L132 47L132 45L158 45L158 50L184 50L184 42L211 42L211 43L237 43L237 42L263 42L263 45L290 45L290 44L316 44L316 48L343 48L343 43L369 43L369 50L395 50L395 51L422 51L422 46L448 46L448 49L474 49L474 41L501 41L501 48L527 48L527 45L553 45L553 47L580 47L580 46L606 46L606 47L606 42L606 42L580 42L580 43L553 43L553 40L527 40L527 44L501 44L501 36L474 36L474 45L448 45L448 42L422 42L422 45L395 45L395 46L369 46L369 37L343 37L343 43L316 43L316 40L290 40L290 41L263 41L263 38L237 38L237 37L211 37L211 38L184 38L184 45L158 45L158 42L132 42L132 42L105 42L105 39L79 39L79 42L53 42L53 40L26 40L26 39L0 39Z" fill="#6d0000"></path><path d="M0 59L26 59L26 57L53 57L53 59L79 59L79 56L105 56L105 57L132 57L132 56L158 56L158 59L184 59L184 56L211 56L211 57L237 57L237 57L263 57L263 57L290 57L290 57L316 57L316 59L343 59L343 57L369 57L369 57L395 57L395 58L422 58L422 57L448 57L448 57L474 57L474 58L501 58L501 59L527 59L527 56L553 56L553 59L580 59L580 59L606 59L606 59L606 45L606 44L580 44L580 45L553 45L553 43L527 43L527 46L501 46L501 39L474 39L474 47L448 47L448 44L422 44L422 49L395 49L395 48L369 48L369 41L343 41L343 46L316 46L316 42L290 42L290 43L263 43L263 40L237 40L237 41L211 41L211 40L184 40L184 48L158 48L158 43L132 43L132 45L105 45L105 42L79 42L79 45L53 45L53 43L26 43L26 40L0 40Z" fill="#590000"></path><path d="M0 61L26 61L26 61L53 61L53 61L79 61L79 61L105 61L105 61L132 61L132 61L158 61L158 61L184 61L184 61L211 61L211 61L237 61L237 61L263 61L263 61L290 61L290 61L316 61L316 61L343 61L343 61L369 61L369 61L395 61L395 61L422 61L422 61L448 61L448 61L474 61L474 61L501 61L501 61L527 61L527 61L553 61L553 61L580 61L580 61L606 61L606 61L606 57L606 57L580 57L580 57L553 57L553 54L527 54L527 57L501 57L501 56L474 56L474 55L448 55L448 55L422 55L422 56L395 56L395 55L369 55L369 55L343 55L343 57L316 57L316 55L290 55L290 55L263 55L263 55L237 55L237 55L211 55L211 54L184 54L184 57L158 57L158 54L132 54L132 55L105 55L105 54L79 54L79 57L53 57L53 55L26 55L26 57L0 57Z" fill="#000000"></path></svg>