<svg id="visual" viewBox="0 0 606 60" width="606" height="60" xmlns="http://www.w3.org/2000/svg" xmlns:xlink="http://www.w3.org/1999/xlink" version="1.1"><rect x="0" y="0" width="606" height="60" fill="#c45800"></rect><path d="M0 13L30 13L30 24L61 24L61 20L91 20L91 14L121 14L121 16L152 16L152 19L182 19L182 16L212 16L212 13L242 13L242 26L273 26L273 17L303 17L303 23L333 23L333 15L364 15L364 25L394 25L394 24L424 24L424 18L455 18L455 26L485 26L485 21L515 21L515 17L545 17L545 14L576 14L576 26L606 26L606 26L606 61L606 61L576 61L576 61L545 61L545 61L515 61L515 61L485 61L485 61L455 61L455 61L424 61L424 61L394 61L394 61L364 61L364 61L333 61L333 61L303 61L303 61L273 61L273 61L242 61L242 61L212 61L212 61L182 61L182 61L152 61L152 61L121 61L121 61L91 61L91 61L61 61L61 61L30 61L30 61L0 61Z" fill="#be8128"></path><path d="M0 20L30 20L30 28L61 28L61 24L91 24L91 30L121 30L121 24L152 24L152 24L182 24L182 21L212 21L212 26L242 26L242 30L273 30L273 23L303 23L303 21L333 21L333 21L364 21L364 24L394 24L394 28L424 28L424 28L455 28L455 24L485 24L485 20L515 20L515 20L545 20L545 22L576 22L576 22L606 22L606 23L606 61L606 61L576 61L576 61L545 61L545 61L515 61L515 61L485 61L485 61L455 61L455 61L424 61L424 61L394 61L394 61L364 61L364 61L333 61L333 61L303 61L303 61L273 61L273 61L242 61L242 61L212 61L212 61L182 61L182 61L152 61L152 61L121 61L121 61L91 61L91 61L61 61L61 61L30 61L30 61L0 61Z" fill="#eaa236"></path><path d="M0 31L30 31L30 28L61 28L61 26L91 26L91 25L121 25L121 26L152 26L152 34L182 34L182 28L212 28L212 25L242 25L242 28L273 28L273 29L303 29L303 25L333 25L333 27L364 27L364 26L394 26L394 28L424 28L424 29L455 29L455 26L485 26L485 28L515 28L515 32L545 32L545 24L576 24L576 28L606 28L606 26L606 61L606 61L576 61L576 61L545 61L545 61L515 61L515 61L485 61L485 61L455 61L455 61L424 61L424 61L394 61L394 61L364 61L364 61L333 61L333 61L303 61L303 61L273 61L273 61L242 61L242 61L212 61L212 61L182 61L182 61L152 61L152 61L121 61L121 61L91 61L91 61L61 61L61 61L30 61L30 61L0 61Z" fill="#feba58"></path><path d="M0 34L30 34L30 31L61 31L61 29L91 29L91 33L121 33L121 39L152 39L152 37L182 37L182 30L212 30L212 30L242 30L242 29L273 29L273 32L303 32L303 32L333 32L333 30L364 30L364 37L394 37L394 30L424 30L424 29L455 29L455 37L485 37L485 33L515 33L515 30L545 30L545 39L576 39L576 35L606 35L606 38L606 61L606 61L576 61L576 61L545 61L545 61L515 61L515 61L485 61L485 61L455 61L455 61L424 61L424 61L394 61L394 61L364 61L364 61L333 61L333 61L303 61L303 61L273 61L273 61L242 61L242 61L212 61L212 61L182 61L182 61L152 61L152 61L121 61L121 61L91 61L91 61L61 61L61 61L30 61L30 61L0 61Z" fill="#ffc87a"></path><path d="M0 36L30 36L30 39L61 39L61 41L91 41L91 41L121 41L121 38L152 38L152 41L182 41L182 36L212 36L212 37L242 37L242 38L273 38L273 37L303 37L303 36L333 36L333 37L364 37L364 41L394 41L394 36L424 36L424 36L455 36L455 39L485 39L485 42L515 42L515 34L545 34L545 42L576 42L576 42L606 42L606 39L606 61L606 61L576 61L576 61L545 61L545 61L515 61L515 61L485 61L485 61L455 61L455 61L424 61L424 61L394 61L394 61L364 61L364 61L333 61L333 61L303 61L303 61L273 61L273 61L242 61L242 61L212 61L212 61L182 61L182 61L152 61L152 61L121 61L121 61L91 61L91 61L61 61L61 61L30 61L30 61L0 61Z" fill="#ffc87a"></path><path d="M0 45L30 45L30 43L61 43L61 42L91 42L91 46L121 46L121 42L152 42L152 40L182 40L182 42L212 42L212 45L242 45L242 46L273 46L273 42L303 42L303 46L333 46L333 44L364 44L364 47L394 47L394 48L424 48L424 45L455 45L455 42L485 42L485 44L515 44L515 43L545 43L545 47L576 47L576 42L606 42L606 44L606 61L606 61L576 61L576 61L545 61L545 61L515 61L515 61L485 61L485 61L455 61L455 61L424 61L424 61L394 61L394 61L364 61L364 61L333 61L333 61L303 61L303 61L273 61L273 61L242 61L242 61L212 61L212 61L182 61L182 61L152 61L152 61L121 61L121 61L91 61L91 61L61 61L61 61L30 61L30 61L0 61Z" fill="#feba58"></path><path d="M0 48L30 48L30 50L61 50L61 46L91 46L91 46L121 46L121 50L152 50L152 45L182 45L182 49L212 49L212 48L242 48L242 45L273 45L273 47L303 47L303 48L333 48L333 47L364 47L364 45L394 45L394 48L424 48L424 46L455 46L455 49L485 49L485 47L515 47L515 50L545 50L545 48L576 48L576 51L606 51L606 45L606 61L606 61L576 61L576 61L545 61L545 61L515 61L515 61L485 61L485 61L455 61L455 61L424 61L424 61L394 61L394 61L364 61L364 61L333 61L333 61L303 61L303 61L273 61L273 61L242 61L242 61L212 61L212 61L182 61L182 61L152 61L152 61L121 61L121 61L91 61L91 61L61 61L61 61L30 61L30 61L0 61Z" fill="#eaa236"></path><path d="M0 54L30 54L30 51L61 51L61 55L91 55L91 51L121 51L121 54L152 54L152 54L182 54L182 54L212 54L212 51L242 51L242 55L273 55L273 55L303 55L303 53L333 53L333 53L364 53L364 52L394 52L394 51L424 51L424 53L455 53L455 51L485 51L485 55L515 55L515 53L545 53L545 54L576 54L576 52L606 52L606 51L606 61L606 61L576 61L576 61L545 61L545 61L515 61L515 61L485 61L485 61L455 61L455 61L424 61L424 61L394 61L394 61L364 61L364 61L333 61L333 61L303 61L303 61L273 61L273 61L242 61L242 61L212 61L212 61L182 61L182 61L152 61L152 61L121 61L121 61L91 61L91 61L61 61L61 61L30 61L30 61L0 61Z" fill="#be8128"></path></svg>