<svg id="visual" viewBox="0 0 606 60" width="606" height="60" xmlns="http://www.w3.org/2000/svg" xmlns:xlink="http://www.w3.org/1999/xlink" version="1.1"><rect x="0" y="0" width="606" height="60" fill="#a97600"></rect><defs><linearGradient id="grad1_0" x1="90.1%" y1="0%" x2="100%" y2="100%"><stop offset="-152%" stop-color="#3eff00" stop-opacity="1"></stop><stop offset="252%" stop-color="#3eff00" stop-opacity="1"></stop></linearGradient></defs><defs><linearGradient id="grad1_1" x1="90.1%" y1="0%" x2="100%" y2="100%"><stop offset="-152%" stop-color="#3eff00" stop-opacity="1"></stop><stop offset="252%" stop-color="#8bdb00" stop-opacity="1"></stop></linearGradient></defs><defs><linearGradient id="grad1_2" x1="90.1%" y1="0%" x2="100%" y2="100%"><stop offset="-152%" stop-color="#a6b700" stop-opacity="1"></stop><stop offset="252%" stop-color="#8bdb00" stop-opacity="1"></stop></linearGradient></defs><defs><linearGradient id="grad1_3" x1="90.1%" y1="0%" x2="100%" y2="100%"><stop offset="-152%" stop-color="#a6b700" stop-opacity="1"></stop><stop offset="252%" stop-color="#af9500" stop-opacity="1"></stop></linearGradient></defs><defs><linearGradient id="grad1_4" x1="90.1%" y1="0%" x2="100%" y2="100%"><stop offset="-152%" stop-color="#a97600" stop-opacity="1"></stop><stop offset="252%" stop-color="#af9500" stop-opacity="1"></stop></linearGradient></defs><defs><linearGradient id="grad2_0" x1="0%" y1="0%" x2="9.9%" y2="100%"><stop offset="-152%" stop-color="#3eff00" stop-opacity="1"></stop><stop offset="252%" stop-color="#3eff00" stop-opacity="1"></stop></linearGradient></defs><defs><linearGradient id="grad2_1" x1="0%" y1="0%" x2="9.9%" y2="100%"><stop offset="-152%" stop-color="#8bdb00" stop-opacity="1"></stop><stop offset="252%" stop-color="#3eff00" stop-opacity="1"></stop></linearGradient></defs><defs><linearGradient id="grad2_2" x1="0%" y1="0%" x2="9.9%" y2="100%"><stop offset="-152%" stop-color="#8bdb00" stop-opacity="1"></stop><stop offset="252%" stop-color="#a6b700" stop-opacity="1"></stop></linearGradient></defs><defs><linearGradient id="grad2_3" x1="0%" y1="0%" x2="9.9%" y2="100%"><stop offset="-152%" stop-color="#af9500" stop-opacity="1"></stop><stop offset="252%" stop-color="#a6b700" stop-opacity="1"></stop></linearGradient></defs><defs><linearGradient id="grad2_4" x1="0%" y1="0%" x2="9.9%" y2="100%"><stop offset="-152%" stop-color="#af9500" stop-opacity="1"></stop><stop offset="252%" stop-color="#a97600" stop-opacity="1"></stop></linearGradient></defs><g transform="translate(606, 0)"><path d="M0 60C-2.5 54 -5 48 -8.3 47.3C-11.6 46.6 -15.7 51.2 -18.5 50.7C-21.2 50.3 -22.5 44.9 -24 41.6C-25.5 38.3 -27.1 37.1 -31.5 37.5C-35.9 38 -43.2 40.2 -45.2 37.9C-47.2 35.7 -43.8 29 -43.3 25C-42.8 21 -45.3 19.7 -48.9 17.8C-52.4 15.9 -57.1 13.5 -59.1 10.4C-61.1 7.4 -60.6 3.7 -60 0L0 0Z" fill="#ad8500"></path><path d="M0 48C-2 43.2 -4 38.4 -6.7 37.8C-9.3 37.3 -12.6 40.9 -14.8 40.6C-17 40.3 -18 35.9 -19.2 33.3C-20.4 30.6 -21.6 29.6 -25.2 30C-28.8 30.4 -34.6 32.1 -36.2 30.3C-37.7 28.5 -35 23.2 -34.6 20C-34.3 16.8 -36.2 15.7 -39.1 14.2C-41.9 12.7 -45.6 10.8 -47.3 8.3C-48.9 5.9 -48.4 2.9 -48 0L0 0Z" fill="#ada600"></path><path d="M0 36C-1.5 32.4 -3 28.8 -5 28.4C-7 27.9 -9.4 30.7 -11.1 30.4C-12.7 30.2 -13.5 26.9 -14.4 24.9C-15.3 23 -16.2 22.2 -18.9 22.5C-21.6 22.8 -25.9 24.1 -27.1 22.8C-28.3 21.4 -26.3 17.4 -26 15C-25.7 12.6 -27.2 11.8 -29.3 10.7C-31.5 9.5 -34.2 8.1 -35.5 6.3C-36.7 4.4 -36.3 2.2 -36 0L0 0Z" fill="#9cc900"></path><path d="M0 24C-1 21.6 -2 19.2 -3.3 18.9C-4.7 18.6 -6.3 20.5 -7.4 20.3C-8.5 20.1 -9 18 -9.6 16.6C-10.2 15.3 -10.8 14.8 -12.6 15C-14.4 15.2 -17.3 16.1 -18.1 15.2C-18.9 14.3 -17.5 11.6 -17.3 10C-17.1 8.4 -18.1 7.9 -19.5 7.1C-21 6.4 -22.8 5.4 -23.6 4.2C-24.4 2.9 -24.2 1.5 -24 0L0 0Z" fill="#70ed00"></path><path d="M0 12C-0.5 10.8 -1 9.6 -1.7 9.5C-2.3 9.3 -3.1 10.2 -3.7 10.1C-4.2 10.1 -4.5 9 -4.8 8.3C-5.1 7.7 -5.4 7.4 -6.3 7.5C-7.2 7.6 -8.6 8 -9 7.6C-9.4 7.1 -8.8 5.8 -8.7 5C-8.6 4.2 -9.1 3.9 -9.8 3.6C-10.5 3.2 -11.4 2.7 -11.8 2.1C-12.2 1.5 -12.1 0.7 -12 0L0 0Z" fill="#3eff00"></path></g><g transform="translate(0, 60)"><path d="M0 -60C3.3 -57.7 6.6 -55.5 9.4 -53.2C12.1 -50.9 14.3 -48.5 17.4 -47.9C20.6 -47.4 24.8 -48.6 27 -46.8C29.2 -45 29.3 -40.1 32.1 -38.3C35 -36.5 40.5 -37.8 42.9 -36C45.3 -34.2 44.6 -29.5 45 -26C45.4 -22.5 46.9 -20.4 49.8 -18.1C52.7 -15.9 57.1 -13.5 59.1 -10.4C61 -7.4 60.5 -3.7 60 0L0 0Z" fill="#ad8500"></path><path d="M0 -48C2.7 -46.2 5.3 -44.4 7.5 -42.5C9.7 -40.7 11.4 -38.8 14 -38.3C16.5 -37.9 19.9 -38.9 21.6 -37.4C23.3 -36 23.5 -32.1 25.7 -30.6C28 -29.2 32.4 -30.2 34.3 -28.8C36.3 -27.4 35.7 -23.6 36 -20.8C36.3 -18 37.5 -16.3 39.8 -14.5C42.2 -12.7 45.7 -10.8 47.3 -8.3C48.8 -5.9 48.4 -3 48 0L0 0Z" fill="#ada600"></path><path d="M0 -36C2 -34.6 4 -33.3 5.6 -31.9C7.3 -30.5 8.6 -29.1 10.5 -28.8C12.4 -28.4 14.9 -29.1 16.2 -28.1C17.5 -27 17.6 -24.1 19.3 -23C21 -21.9 24.3 -22.7 25.7 -21.6C27.2 -20.5 26.8 -17.7 27 -15.6C27.3 -13.5 28.1 -12.2 29.9 -10.9C31.6 -9.5 34.3 -8.1 35.5 -6.3C36.6 -4.4 36.3 -2.2 36 0L0 0Z" fill="#9cc900"></path><path d="M0 -24C1.3 -23.1 2.7 -22.2 3.8 -21.3C4.8 -20.3 5.7 -19.4 7 -19.2C8.2 -18.9 9.9 -19.4 10.8 -18.7C11.7 -18 11.7 -16 12.9 -15.3C14 -14.6 16.2 -15.1 17.2 -14.4C18.1 -13.7 17.9 -11.8 18 -10.4C18.2 -9 18.7 -8.2 19.9 -7.3C21.1 -6.3 22.9 -5.4 23.6 -4.2C24.4 -3 24.2 -1.5 24 0L0 0Z" fill="#70ed00"></path><path d="M0 -12C0.7 -11.5 1.3 -11.1 1.9 -10.6C2.4 -10.2 2.9 -9.7 3.5 -9.6C4.1 -9.5 5 -9.7 5.4 -9.4C5.8 -9 5.9 -8 6.4 -7.7C7 -7.3 8.1 -7.6 8.6 -7.2C9.1 -6.8 8.9 -5.9 9 -5.2C9.1 -4.5 9.4 -4.1 10 -3.6C10.5 -3.2 11.4 -2.7 11.8 -2.1C12.2 -1.5 12.1 -0.7 12 0L0 0Z" fill="#3eff00"></path></g></svg>