<svg id="visual" viewBox="0 0 606 60" width="606" height="60" xmlns="http://www.w3.org/2000/svg" xmlns:xlink="http://www.w3.org/1999/xlink" version="1.1"><rect x="0" y="0" width="606" height="60" fill="#c45800"></rect><path d="M0 16L30 16L30 17L61 17L61 20L91 20L91 23L121 23L121 17L152 17L152 14L182 14L182 21L212 21L212 24L242 24L242 19L273 19L273 13L303 13L303 22L333 22L333 27L364 27L364 14L394 14L394 20L424 20L424 19L455 19L455 26L485 26L485 15L515 15L515 16L545 16L545 18L576 18L576 19L606 19L606 20L606 61L606 61L576 61L576 61L545 61L545 61L515 61L515 61L485 61L485 61L455 61L455 61L424 61L424 61L394 61L394 61L364 61L364 61L333 61L333 61L303 61L303 61L273 61L273 61L242 61L242 61L212 61L212 61L182 61L182 61L152 61L152 61L121 61L121 61L91 61L91 61L61 61L61 61L30 61L30 61L0 61Z" fill="#ffc87a"></path><path d="M0 27L30 27L30 19L61 19L61 28L91 28L91 26L121 26L121 24L152 24L152 25L182 25L182 27L212 27L212 30L242 30L242 29L273 29L273 20L303 20L303 22L333 22L333 30L364 30L364 28L394 28L394 30L424 30L424 30L455 30L455 23L485 23L485 23L515 23L515 28L545 28L545 27L576 27L576 29L606 29L606 21L606 61L606 61L576 61L576 61L545 61L545 61L515 61L515 61L485 61L485 61L455 61L455 61L424 61L424 61L394 61L394 61L364 61L364 61L333 61L333 61L303 61L303 61L273 61L273 61L242 61L242 61L212 61L212 61L182 61L182 61L152 61L152 61L121 61L121 61L91 61L91 61L61 61L61 61L30 61L30 61L0 61Z" fill="#fec169"></path><path d="M0 25L30 25L30 26L61 26L61 33L91 33L91 26L121 26L121 24L152 24L152 29L182 29L182 24L212 24L212 32L242 32L242 29L273 29L273 33L303 33L303 25L333 25L333 33L364 33L364 32L394 32L394 32L424 32L424 24L455 24L455 23L485 23L485 30L515 30L515 26L545 26L545 35L576 35L576 23L606 23L606 31L606 61L606 61L576 61L576 61L545 61L545 61L515 61L515 61L485 61L485 61L455 61L455 61L424 61L424 61L394 61L394 61L364 61L364 61L333 61L333 61L303 61L303 61L273 61L273 61L242 61L242 61L212 61L212 61L182 61L182 61L152 61L152 61L121 61L121 61L91 61L91 61L61 61L61 61L30 61L30 61L0 61Z" fill="#feba58"></path><path d="M0 33L30 33L30 31L61 31L61 30L91 30L91 38L121 38L121 31L152 31L152 34L182 34L182 35L212 35L212 29L242 29L242 36L273 36L273 36L303 36L303 30L333 30L333 34L364 34L364 31L394 31L394 34L424 34L424 31L455 31L455 37L485 37L485 29L515 29L515 37L545 37L545 37L576 37L576 38L606 38L606 38L606 61L606 61L576 61L576 61L545 61L545 61L515 61L515 61L485 61L485 61L455 61L455 61L424 61L424 61L394 61L394 61L364 61L364 61L333 61L333 61L303 61L303 61L273 61L273 61L242 61L242 61L212 61L212 61L182 61L182 61L152 61L152 61L121 61L121 61L91 61L91 61L61 61L61 61L30 61L30 61L0 61Z" fill="#fdb346"></path><path d="M0 43L30 43L30 37L61 37L61 36L91 36L91 42L121 42L121 41L152 41L152 35L182 35L182 37L212 37L212 39L242 39L242 40L273 40L273 39L303 39L303 39L333 39L333 38L364 38L364 39L394 39L394 35L424 35L424 34L455 34L455 41L485 41L485 41L515 41L515 34L545 34L545 39L576 39L576 41L606 41L606 41L606 61L606 61L576 61L576 61L545 61L545 61L515 61L515 61L485 61L485 61L455 61L455 61L424 61L424 61L394 61L394 61L364 61L364 61L333 61L333 61L303 61L303 61L273 61L273 61L242 61L242 61L212 61L212 61L182 61L182 61L152 61L152 61L121 61L121 61L91 61L91 61L61 61L61 61L30 61L30 61L0 61Z" fill="#f3a839"></path><path d="M0 46L30 46L30 42L61 42L61 47L91 47L91 45L121 45L121 40L152 40L152 42L182 42L182 39L212 39L212 42L242 42L242 46L273 46L273 44L303 44L303 40L333 40L333 43L364 43L364 42L394 42L394 42L424 42L424 41L455 41L455 47L485 47L485 43L515 43L515 42L545 42L545 47L576 47L576 45L606 45L606 43L606 61L606 61L576 61L576 61L545 61L545 61L515 61L515 61L485 61L485 61L455 61L455 61L424 61L424 61L394 61L394 61L364 61L364 61L333 61L333 61L303 61L303 61L273 61L273 61L242 61L242 61L212 61L212 61L182 61L182 61L152 61L152 61L121 61L121 61L91 61L91 61L61 61L61 61L30 61L30 61L0 61Z" fill="#e19b33"></path><path d="M0 48L30 48L30 47L61 47L61 45L91 45L91 48L121 48L121 47L152 47L152 45L182 45L182 48L212 48L212 45L242 45L242 47L273 47L273 49L303 49L303 48L333 48L333 49L364 49L364 47L394 47L394 49L424 49L424 46L455 46L455 50L485 50L485 50L515 50L515 49L545 49L545 51L576 51L576 47L606 47L606 47L606 61L606 61L576 61L576 61L545 61L545 61L515 61L515 61L485 61L485 61L455 61L455 61L424 61L424 61L394 61L394 61L364 61L364 61L333 61L333 61L303 61L303 61L273 61L273 61L242 61L242 61L212 61L212 61L182 61L182 61L152 61L152 61L121 61L121 61L91 61L91 61L61 61L61 61L30 61L30 61L0 61Z" fill="#cf8e2e"></path><path d="M0 54L30 54L30 55L61 55L61 52L91 52L91 55L121 55L121 55L152 55L152 53L182 53L182 54L212 54L212 55L242 55L242 54L273 54L273 51L303 51L303 51L333 51L333 53L364 53L364 53L394 53L394 50L424 50L424 52L455 52L455 52L485 52L485 52L515 52L515 54L545 54L545 55L576 55L576 54L606 54L606 56L606 61L606 61L576 61L576 61L545 61L545 61L515 61L515 61L485 61L485 61L455 61L455 61L424 61L424 61L394 61L394 61L364 61L364 61L333 61L333 61L303 61L303 61L273 61L273 61L242 61L242 61L212 61L212 61L182 61L182 61L152 61L152 61L121 61L121 61L91 61L91 61L61 61L61 61L30 61L30 61L0 61Z" fill="#be8128"></path></svg>