<svg id="visual" viewBox="0 0 606 60" width="606" height="60" xmlns="http://www.w3.org/2000/svg" xmlns:xlink="http://www.w3.org/1999/xlink" version="1.1"><path d="M0 7L9.2 7.2C18.3 7.3 36.7 7.7 55 7.5C73.3 7.3 91.7 6.7 110 6.7C128.3 6.7 146.7 7.3 165 7.2C183.3 7 201.7 6 220 5.5C238.3 5 256.7 5 275.2 5.2C293.7 5.3 312.3 5.7 330.8 5.5C349.3 5.3 367.7 4.7 386 4.3C404.3 4 422.7 4 441 4.2C459.3 4.3 477.7 4.7 496 5C514.3 5.3 532.7 5.7 551 5.3C569.3 5 587.7 4 596.8 3.5L606 3L606 0L596.8 0C587.7 0 569.3 0 551 0C532.7 0 514.3 0 496 0C477.7 0 459.3 0 441 0C422.7 0 404.3 0 386 0C367.7 0 349.3 0 330.8 0C312.3 0 293.7 0 275.2 0C256.7 0 238.3 0 220 0C201.7 0 183.3 0 165 0C146.7 0 128.3 0 110 0C91.7 0 73.3 0 55 0C36.7 0 18.3 0 9.2 0L0 0Z" fill="#034a84"></path><path d="M0 13L9.2 13.3C18.3 13.7 36.7 14.3 55 14.2C73.3 14 91.7 13 110 13C128.3 13 146.7 14 165 14C183.3 14 201.7 13 220 11.8C238.3 10.7 256.7 9.3 275.2 9.3C293.7 9.3 312.3 10.7 330.8 11.3C349.3 12 367.7 12 386 12.7C404.3 13.3 422.7 14.7 441 14.2C459.3 13.7 477.7 11.3 496 11C514.3 10.7 532.7 12.3 551 12.3C569.3 12.3 587.7 10.7 596.8 9.8L606 9L606 1L596.8 1.5C587.7 2 569.3 3 551 3.3C532.7 3.7 514.3 3.3 496 3C477.7 2.7 459.3 2.3 441 2.2C422.7 2 404.3 2 386 2.3C367.7 2.7 349.3 3.3 330.8 3.5C312.3 3.7 293.7 3.3 275.2 3.2C256.7 3 238.3 3 220 3.5C201.7 4 183.3 5 165 5.2C146.7 5.3 128.3 4.7 110 4.7C91.7 4.7 73.3 5.3 55 5.5C36.7 5.7 18.3 5.3 9.2 5.2L0 5Z" fill="#0b529a"></path><path d="M0 19L9.2 18.8C18.3 18.7 36.7 18.3 55 18.3C73.3 18.3 91.7 18.7 110 18.8C128.3 19 146.7 19 165 19.2C183.3 19.3 201.7 19.7 220 19.3C238.3 19 256.7 18 275.2 18.2C293.7 18.3 312.3 19.7 330.8 19.8C349.3 20 367.7 19 386 18.8C404.3 18.7 422.7 19.3 441 18.8C459.3 18.3 477.7 16.7 496 16.3C514.3 16 532.7 17 551 17.3C569.3 17.7 587.7 17.3 596.8 17.2L606 17L606 7L596.8 7.8C587.7 8.7 569.3 10.3 551 10.3C532.7 10.3 514.3 8.7 496 9C477.7 9.3 459.3 11.7 441 12.2C422.7 12.7 404.3 11.3 386 10.7C367.7 10 349.3 10 330.8 9.3C312.3 8.7 293.7 7.3 275.2 7.3C256.7 7.3 238.3 8.7 220 9.8C201.7 11 183.3 12 165 12C146.7 12 128.3 11 110 11C91.7 11 73.3 12 55 12.2C36.7 12.3 18.3 11.7 9.2 11.3L0 11Z" fill="#1e5ab0"></path><path d="M0 42L9.2 40.8C18.3 39.7 36.7 37.3 55 36.5C73.3 35.7 91.7 36.3 110 36C128.3 35.7 146.7 34.3 165 33.7C183.3 33 201.7 33 220 32.5C238.3 32 256.7 31 275.2 31.5C293.7 32 312.3 34 330.8 34.8C349.3 35.7 367.7 35.3 386 35.2C404.3 35 422.7 35 441 34.2C459.3 33.3 477.7 31.7 496 31.2C514.3 30.7 532.7 31.3 551 32.5C569.3 33.7 587.7 35.3 596.8 36.2L606 37L606 15L596.8 15.2C587.7 15.3 569.3 15.7 551 15.3C532.7 15 514.3 14 496 14.3C477.7 14.7 459.3 16.3 441 16.8C422.7 17.3 404.3 16.7 386 16.8C367.7 17 349.3 18 330.8 17.8C312.3 17.7 293.7 16.3 275.2 16.2C256.7 16 238.3 17 220 17.3C201.7 17.7 183.3 17.3 165 17.2C146.7 17 128.3 17 110 16.8C91.7 16.7 73.3 16.3 55 16.3C36.7 16.3 18.3 16.7 9.2 16.8L0 17Z" fill="#3461c5"></path><path d="M0 51L9.2 50.7C18.3 50.3 36.7 49.7 55 48.7C73.3 47.7 91.7 46.3 110 45.7C128.3 45 146.7 45 165 45.8C183.3 46.7 201.7 48.3 220 49.5C238.3 50.7 256.7 51.3 275.2 51.7C293.7 52 312.3 52 330.8 51.8C349.3 51.7 367.7 51.3 386 50.2C404.3 49 422.7 47 441 46C459.3 45 477.7 45 496 45.5C514.3 46 532.7 47 551 47C569.3 47 587.7 46 596.8 45.5L606 45L606 35L596.8 34.2C587.7 33.3 569.3 31.7 551 30.5C532.7 29.3 514.3 28.7 496 29.2C477.7 29.7 459.3 31.3 441 32.2C422.7 33 404.3 33 386 33.2C367.7 33.3 349.3 33.7 330.8 32.8C312.3 32 293.7 30 275.2 29.5C256.7 29 238.3 30 220 30.5C201.7 31 183.3 31 165 31.7C146.7 32.3 128.3 33.7 110 34C91.7 34.3 73.3 33.7 55 34.5C36.7 35.3 18.3 37.7 9.2 38.8L0 40Z" fill="#4c67d9"></path><path d="M0 54L9.2 53.8C18.3 53.7 36.7 53.3 55 52.7C73.3 52 91.7 51 110 50.7C128.3 50.3 146.7 50.7 165 51.3C183.3 52 201.7 53 220 53.5C238.3 54 256.7 54 275.2 54C293.7 54 312.3 54 330.8 54.3C349.3 54.7 367.7 55.3 386 54.3C404.3 53.3 422.7 50.7 441 49.8C459.3 49 477.7 50 496 50.8C514.3 51.7 532.7 52.3 551 52.2C569.3 52 587.7 51 596.8 50.5L606 50L606 43L596.8 43.5C587.7 44 569.3 45 551 45C532.7 45 514.3 44 496 43.5C477.7 43 459.3 43 441 44C422.7 45 404.3 47 386 48.2C367.7 49.3 349.3 49.7 330.8 49.8C312.3 50 293.7 50 275.2 49.7C256.7 49.3 238.3 48.7 220 47.5C201.7 46.3 183.3 44.7 165 43.8C146.7 43 128.3 43 110 43.7C91.7 44.3 73.3 45.7 55 46.7C36.7 47.7 18.3 48.3 9.2 48.7L0 49Z" fill="#666ced"></path><path d="M0 61L9.2 61C18.3 61 36.7 61 55 61C73.3 61 91.7 61 110 61C128.3 61 146.7 61 165 61C183.3 61 201.7 61 220 61C238.3 61 256.7 61 275.2 61C293.7 61 312.3 61 330.8 61C349.3 61 367.7 61 386 61C404.3 61 422.7 61 441 61C459.3 61 477.7 61 496 61C514.3 61 532.7 61 551 61C569.3 61 587.7 61 596.8 61L606 61L606 48L596.8 48.5C587.7 49 569.3 50 551 50.2C532.7 50.3 514.3 49.7 496 48.8C477.7 48 459.3 47 441 47.8C422.7 48.7 404.3 51.3 386 52.3C367.7 53.3 349.3 52.7 330.8 52.3C312.3 52 293.7 52 275.2 52C256.7 52 238.3 52 220 51.5C201.7 51 183.3 50 165 49.3C146.7 48.7 128.3 48.3 110 48.7C91.7 49 73.3 50 55 50.7C36.7 51.3 18.3 51.7 9.2 51.8L0 52Z" fill="#826fff"></path></svg>