<svg id="visual" viewBox="0 0 606 60" width="606" height="60" xmlns="http://www.w3.org/2000/svg" xmlns:xlink="http://www.w3.org/1999/xlink" version="1.1"><rect x="0" y="0" width="606" height="60" fill="#120095"></rect><defs><linearGradient id="grad1_0" x1="90.1%" y1="0%" x2="100%" y2="100%"><stop offset="-152%" stop-color="#715df2" stop-opacity="1"></stop><stop offset="252%" stop-color="#715df2" stop-opacity="1"></stop></linearGradient></defs><defs><linearGradient id="grad1_1" x1="90.1%" y1="0%" x2="100%" y2="100%"><stop offset="-152%" stop-color="#715df2" stop-opacity="1"></stop><stop offset="252%" stop-color="#4832c3" stop-opacity="1"></stop></linearGradient></defs><defs><linearGradient id="grad1_2" x1="90.1%" y1="0%" x2="100%" y2="100%"><stop offset="-152%" stop-color="#120095" stop-opacity="1"></stop><stop offset="252%" stop-color="#4832c3" stop-opacity="1"></stop></linearGradient></defs><defs><linearGradient id="grad2_0" x1="0%" y1="0%" x2="9.9%" y2="100%"><stop offset="-152%" stop-color="#715df2" stop-opacity="1"></stop><stop offset="252%" stop-color="#715df2" stop-opacity="1"></stop></linearGradient></defs><defs><linearGradient id="grad2_1" x1="0%" y1="0%" x2="9.9%" y2="100%"><stop offset="-152%" stop-color="#4832c3" stop-opacity="1"></stop><stop offset="252%" stop-color="#715df2" stop-opacity="1"></stop></linearGradient></defs><defs><linearGradient id="grad2_2" x1="0%" y1="0%" x2="9.9%" y2="100%"><stop offset="-152%" stop-color="#4832c3" stop-opacity="1"></stop><stop offset="252%" stop-color="#120095" stop-opacity="1"></stop></linearGradient></defs><g transform="translate(606, 0)"><path d="M0 60C-2.6 54.7 -5.2 49.5 -8.5 48.3C-11.9 47 -16 49.9 -17.1 47C-18.2 44.1 -16.3 35.6 -21 36.4C-25.7 37.2 -37.2 47.4 -38.6 46C-40 44.6 -31.4 31.6 -32.9 27.6C-34.5 23.7 -46.2 28.8 -47.6 27.5C-49 26.2 -40.1 18.4 -40.4 14.7C-40.7 11 -50.3 11.5 -55.1 9.7C-60 8 -60 4 -60 0L0 0Z" fill="#311cac"></path><path d="M0 40C-1.7 36.5 -3.4 33 -5.7 32.2C-7.9 31.4 -10.7 33.2 -11.4 31.3C-12.1 29.4 -10.8 23.7 -14 24.2C-17.2 24.8 -24.8 31.6 -25.7 30.6C-26.7 29.7 -20.9 21 -22 18.4C-23 15.8 -30.8 19.2 -31.8 18.3C-32.7 17.4 -26.7 12.3 -26.9 9.8C-27.2 7.4 -33.6 7.7 -36.8 6.5C-40 5.3 -40 2.7 -40 0L0 0Z" fill="#5d48da"></path><path d="M0 20C-0.9 18.2 -1.7 16.5 -2.8 16.1C-4 15.7 -5.3 16.6 -5.7 15.7C-6.1 14.7 -5.4 11.9 -7 12.1C-8.6 12.4 -12.4 15.8 -12.9 15.3C-13.3 14.9 -10.5 10.5 -11 9.2C-11.5 7.9 -15.4 9.6 -15.9 9.2C-16.3 8.7 -13.4 6.1 -13.5 4.9C-13.6 3.7 -16.8 3.8 -18.4 3.2C-20 2.7 -20 1.3 -20 0L0 0Z" fill="#715df2"></path></g><g transform="translate(0, 60)"><path d="M0 -60C3.7 -59.8 7.3 -59.5 10.1 -57.1C12.8 -54.7 14.6 -50.2 18.1 -49.8C21.7 -49.4 27 -53.1 30 -52C33 -50.8 33.8 -44.9 33.4 -39.8C33.1 -34.7 31.5 -30.5 34.5 -28.9C37.4 -27.4 44.8 -28.5 45 -26C45.3 -23.5 38.4 -17.4 39.5 -14.4C40.5 -11.3 49.4 -11.4 54.2 -9.6C58.9 -7.7 59.5 -3.8 60 0L0 0Z" fill="#311cac"></path><path d="M0 -40C2.4 -39.8 4.9 -39.7 6.7 -38.1C8.5 -36.5 9.7 -33.5 12.1 -33.2C14.4 -32.9 18 -35.4 20 -34.6C22 -33.9 22.5 -29.9 22.3 -26.6C22 -23.2 21 -20.3 23 -19.3C24.9 -18.2 29.9 -19 30 -17.3C30.2 -15.7 25.6 -11.6 26.3 -9.6C27 -7.6 33 -7.6 36.1 -6.4C39.3 -5.1 39.6 -2.6 40 0L0 0Z" fill="#5d48da"></path><path d="M0 -20C1.2 -19.9 2.4 -19.8 3.4 -19C4.3 -18.2 4.9 -16.7 6 -16.6C7.2 -16.5 9 -17.7 10 -17.3C11 -16.9 11.3 -15 11.1 -13.3C11 -11.6 10.5 -10.2 11.5 -9.6C12.5 -9.1 14.9 -9.5 15 -8.7C15.1 -7.8 12.8 -5.8 13.2 -4.8C13.5 -3.8 16.5 -3.8 18.1 -3.2C19.6 -2.6 19.8 -1.3 20 0L0 0Z" fill="#715df2"></path></g></svg>