<svg id="visual" viewBox="0 0 606 60" width="606" height="60" xmlns="http://www.w3.org/2000/svg" xmlns:xlink="http://www.w3.org/1999/xlink" version="1.1"><path d="M0 15L9.2 15.3C18.3 15.7 36.7 16.3 55 15.8C73.3 15.3 91.7 13.7 110 13.3C128.3 13 146.7 14 165 15.2C183.3 16.3 201.7 17.7 220 17C238.3 16.3 256.7 13.7 275.2 11.8C293.7 10 312.3 9 330.8 10.7C349.3 12.3 367.7 16.7 386 17.3C404.3 18 422.7 15 441 13.5C459.3 12 477.7 12 496 11.7C514.3 11.3 532.7 10.7 551 11.5C569.3 12.3 587.7 14.7 596.8 15.8L606 17L606 0L596.8 0C587.7 0 569.3 0 551 0C532.7 0 514.3 0 496 0C477.7 0 459.3 0 441 0C422.7 0 404.3 0 386 0C367.7 0 349.3 0 330.8 0C312.3 0 293.7 0 275.2 0C256.7 0 238.3 0 220 0C201.7 0 183.3 0 165 0C146.7 0 128.3 0 110 0C91.7 0 73.3 0 55 0C36.7 0 18.3 0 9.2 0L0 0Z" fill="#826fff"></path><path d="M0 18L9.2 18.7C18.3 19.3 36.7 20.7 55 20.2C73.3 19.7 91.7 17.3 110 16.7C128.3 16 146.7 17 165 18.5C183.3 20 201.7 22 220 21C238.3 20 256.7 16 275.2 14.2C293.7 12.3 312.3 12.7 330.8 14.5C349.3 16.3 367.7 19.7 386 19.8C404.3 20 422.7 17 441 15.5C459.3 14 477.7 14 496 14C514.3 14 532.7 14 551 14.8C569.3 15.7 587.7 17.3 596.8 18.2L606 19L606 15L596.8 13.8C587.7 12.7 569.3 10.3 551 9.5C532.7 8.7 514.3 9.3 496 9.7C477.7 10 459.3 10 441 11.5C422.7 13 404.3 16 386 15.3C367.7 14.7 349.3 10.3 330.8 8.7C312.3 7 293.7 8 275.2 9.8C256.7 11.7 238.3 14.3 220 15C201.7 15.7 183.3 14.3 165 13.2C146.7 12 128.3 11 110 11.3C91.7 11.7 73.3 13.3 55 13.8C36.7 14.3 18.3 13.7 9.2 13.3L0 13Z" fill="#5569e0"></path><path d="M0 21L9.2 21.8C18.3 22.7 36.7 24.3 55 24.3C73.3 24.3 91.7 22.7 110 21.7C128.3 20.7 146.7 20.3 165 21.5C183.3 22.7 201.7 25.3 220 24.7C238.3 24 256.7 20 275.2 18.7C293.7 17.3 312.3 18.7 330.8 21.2C349.3 23.7 367.7 27.3 386 26.8C404.3 26.3 422.7 21.7 441 19.8C459.3 18 477.7 19 496 18.8C514.3 18.7 532.7 17.3 551 18.3C569.3 19.3 587.7 22.7 596.8 24.3L606 26L606 17L596.8 16.2C587.7 15.3 569.3 13.7 551 12.8C532.7 12 514.3 12 496 12C477.7 12 459.3 12 441 13.5C422.7 15 404.3 18 386 17.8C367.7 17.7 349.3 14.3 330.8 12.5C312.3 10.7 293.7 10.3 275.2 12.2C256.7 14 238.3 18 220 19C201.7 20 183.3 18 165 16.5C146.7 15 128.3 14 110 14.7C91.7 15.3 73.3 17.7 55 18.2C36.7 18.7 18.3 17.3 9.2 16.7L0 16Z" fill="#2d5fbe"></path><path d="M0 29L9.2 30.2C18.3 31.3 36.7 33.7 55 34.3C73.3 35 91.7 34 110 33C128.3 32 146.7 31 165 31.7C183.3 32.3 201.7 34.7 220 34.3C238.3 34 256.7 31 275.2 30.5C293.7 30 312.3 32 330.8 34C349.3 36 367.7 38 386 37.8C404.3 37.7 422.7 35.3 441 33.5C459.3 31.7 477.7 30.3 496 30.3C514.3 30.3 532.7 31.7 551 32.8C569.3 34 587.7 35 596.8 35.5L606 36L606 24L596.8 22.3C587.7 20.7 569.3 17.3 551 16.3C532.7 15.3 514.3 16.7 496 16.8C477.7 17 459.3 16 441 17.8C422.7 19.7 404.3 24.3 386 24.8C367.7 25.3 349.3 21.7 330.8 19.2C312.3 16.7 293.7 15.3 275.2 16.7C256.7 18 238.3 22 220 22.7C201.7 23.3 183.3 20.7 165 19.5C146.7 18.3 128.3 18.7 110 19.7C91.7 20.7 73.3 22.3 55 22.3C36.7 22.3 18.3 20.7 9.2 19.8L0 19Z" fill="#0b529a"></path><path d="M0 33L9.2 34.3C18.3 35.7 36.7 38.3 55 38.8C73.3 39.3 91.7 37.7 110 37C128.3 36.3 146.7 36.7 165 37.3C183.3 38 201.7 39 220 38.3C238.3 37.7 256.7 35.3 275.2 35C293.7 34.7 312.3 36.3 330.8 38.2C349.3 40 367.7 42 386 41.7C404.3 41.3 422.7 38.7 441 37.2C459.3 35.7 477.7 35.3 496 35.3C514.3 35.3 532.7 35.7 551 36.7C569.3 37.7 587.7 39.3 596.8 40.2L606 41L606 34L596.8 33.5C587.7 33 569.3 32 551 30.8C532.7 29.7 514.3 28.3 496 28.3C477.7 28.3 459.3 29.7 441 31.5C422.7 33.3 404.3 35.7 386 35.8C367.7 36 349.3 34 330.8 32C312.3 30 293.7 28 275.2 28.5C256.7 29 238.3 32 220 32.3C201.7 32.7 183.3 30.3 165 29.7C146.7 29 128.3 30 110 31C91.7 32 73.3 33 55 32.3C36.7 31.7 18.3 29.3 9.2 28.2L0 27Z" fill="#034a84"></path><path d="M0 37L9.2 38.2C18.3 39.3 36.7 41.7 55 41.8C73.3 42 91.7 40 110 39.7C128.3 39.3 146.7 40.7 165 41.8C183.3 43 201.7 44 220 43.2C238.3 42.3 256.7 39.7 275.2 39.2C293.7 38.7 312.3 40.3 330.8 41.7C349.3 43 367.7 44 386 43.7C404.3 43.3 422.7 41.7 441 40.7C459.3 39.7 477.7 39.3 496 39.5C514.3 39.7 532.7 40.3 551 41.3C569.3 42.3 587.7 43.7 596.8 44.3L606 45L606 39L596.8 38.2C587.7 37.3 569.3 35.7 551 34.7C532.7 33.7 514.3 33.3 496 33.3C477.7 33.3 459.3 33.7 441 35.2C422.7 36.7 404.3 39.3 386 39.7C367.7 40 349.3 38 330.8 36.2C312.3 34.3 293.7 32.7 275.2 33C256.7 33.3 238.3 35.7 220 36.3C201.7 37 183.3 36 165 35.3C146.7 34.7 128.3 34.3 110 35C91.7 35.7 73.3 37.3 55 36.8C36.7 36.3 18.3 33.7 9.2 32.3L0 31Z" fill="#034a84"></path><path d="M0 42L9.2 43C18.3 44 36.7 46 55 46.5C73.3 47 91.7 46 110 45.8C128.3 45.7 146.7 46.3 165 46.8C183.3 47.3 201.7 47.7 220 47.2C238.3 46.7 256.7 45.3 275.2 45.3C293.7 45.3 312.3 46.7 330.8 47.7C349.3 48.7 367.7 49.3 386 48.5C404.3 47.7 422.7 45.3 441 44.8C459.3 44.3 477.7 45.7 496 45.8C514.3 46 532.7 45 551 45.7C569.3 46.3 587.7 48.7 596.8 49.8L606 51L606 43L596.8 42.3C587.7 41.7 569.3 40.3 551 39.3C532.7 38.3 514.3 37.7 496 37.5C477.7 37.3 459.3 37.7 441 38.7C422.7 39.7 404.3 41.3 386 41.7C367.7 42 349.3 41 330.8 39.7C312.3 38.3 293.7 36.7 275.2 37.2C256.7 37.7 238.3 40.3 220 41.2C201.7 42 183.3 41 165 39.8C146.7 38.7 128.3 37.3 110 37.7C91.7 38 73.3 40 55 39.8C36.7 39.7 18.3 37.3 9.2 36.2L0 35Z" fill="#0b529a"></path><path d="M0 47L9.2 47.7C18.3 48.3 36.7 49.7 55 50.3C73.3 51 91.7 51 110 50.7C128.3 50.3 146.7 49.7 165 49.7C183.3 49.7 201.7 50.3 220 50C238.3 49.7 256.7 48.3 275.2 48.3C293.7 48.3 312.3 49.7 330.8 50.5C349.3 51.3 367.7 51.7 386 50.7C404.3 49.7 422.7 47.3 441 47.2C459.3 47 477.7 49 496 49.5C514.3 50 532.7 49 551 49.5C569.3 50 587.7 52 596.8 53L606 54L606 49L596.8 47.8C587.7 46.7 569.3 44.3 551 43.7C532.7 43 514.3 44 496 43.8C477.7 43.7 459.3 42.3 441 42.8C422.7 43.3 404.3 45.7 386 46.5C367.7 47.3 349.3 46.7 330.8 45.7C312.3 44.7 293.7 43.3 275.2 43.3C256.7 43.3 238.3 44.7 220 45.2C201.7 45.7 183.3 45.3 165 44.8C146.7 44.3 128.3 43.7 110 43.8C91.7 44 73.3 45 55 44.5C36.7 44 18.3 42 9.2 41L0 40Z" fill="#2d5fbe"></path><path d="M0 59L9.2 59.2C18.3 59.3 36.7 59.7 55 59.8C73.3 60 91.7 60 110 60C128.3 60 146.7 60 165 60C183.3 60 201.7 60 220 59.5C238.3 59 256.7 58 275.2 57.8C293.7 57.7 312.3 58.3 330.8 58.3C349.3 58.3 367.7 57.7 386 57.3C404.3 57 422.7 57 441 57.3C459.3 57.7 477.7 58.3 496 58.7C514.3 59 532.7 59 551 59C569.3 59 587.7 59 596.8 59L606 59L606 52L596.8 51C587.7 50 569.3 48 551 47.5C532.7 47 514.3 48 496 47.5C477.7 47 459.3 45 441 45.2C422.7 45.3 404.3 47.7 386 48.7C367.7 49.7 349.3 49.3 330.8 48.5C312.3 47.7 293.7 46.3 275.2 46.3C256.7 46.3 238.3 47.7 220 48C201.7 48.3 183.3 47.7 165 47.7C146.7 47.7 128.3 48.3 110 48.7C91.7 49 73.3 49 55 48.3C36.7 47.7 18.3 46.3 9.2 45.7L0 45Z" fill="#5569e0"></path><path d="M0 61L9.2 61C18.3 61 36.7 61 55 61C73.3 61 91.7 61 110 61C128.3 61 146.7 61 165 61C183.3 61 201.7 61 220 61C238.3 61 256.7 61 275.2 61C293.7 61 312.3 61 330.8 61C349.3 61 367.7 61 386 61C404.3 61 422.7 61 441 61C459.3 61 477.7 61 496 61C514.3 61 532.7 61 551 61C569.3 61 587.7 61 596.8 61L606 61L606 57L596.8 57C587.7 57 569.3 57 551 57C532.7 57 514.3 57 496 56.7C477.7 56.3 459.3 55.7 441 55.3C422.7 55 404.3 55 386 55.3C367.7 55.7 349.3 56.3 330.8 56.3C312.3 56.3 293.7 55.7 275.2 55.8C256.7 56 238.3 57 220 57.5C201.7 58 183.3 58 165 58C146.7 58 128.3 58 110 58C91.7 58 73.3 58 55 57.8C36.7 57.7 18.3 57.3 9.2 57.2L0 57Z" fill="#826fff"></path></svg>