<svg id="visual" viewBox="0 0 606 60" width="606" height="60" xmlns="http://www.w3.org/2000/svg" xmlns:xlink="http://www.w3.org/1999/xlink" version="1.1"><path d="M0 4L55 2L110 3L165 3L220 2L275 2L331 3L386 3L441 4L496 3L551 2L606 3L606 0L551 0L496 0L441 0L386 0L331 0L275 0L220 0L165 0L110 0L55 0L0 0Z" fill="#00564c"></path><path d="M0 17L55 17L110 15L165 17L220 16L275 18L331 11L386 17L441 19L496 15L551 21L606 12L606 1L551 0L496 1L441 2L386 1L331 1L275 0L220 0L165 1L110 1L55 0L0 2Z" fill="#006f5e"></path><path d="M0 24L55 25L110 23L165 25L220 20L275 24L331 19L386 26L441 27L496 21L551 25L606 19L606 10L551 19L496 13L441 17L386 15L331 9L275 16L220 14L165 15L110 13L55 15L0 15Z" fill="#008a6e"></path><path d="M0 27L55 30L110 28L165 30L220 23L275 27L331 26L386 32L441 30L496 26L551 27L606 26L606 17L551 23L496 19L441 25L386 24L331 17L275 22L220 18L165 23L110 21L55 23L0 22Z" fill="#00a57d"></path><path d="M0 30L55 32L110 30L165 32L220 25L275 32L331 29L386 35L441 33L496 29L551 29L606 29L606 24L551 25L496 24L441 28L386 30L331 24L275 25L220 21L165 28L110 26L55 28L0 25Z" fill="#00c189"></path><path d="M0 33L55 34L110 32L165 33L220 27L275 35L331 31L386 37L441 36L496 33L551 30L606 30L606 27L551 27L496 27L441 31L386 33L331 27L275 30L220 23L165 30L110 28L55 30L0 28Z" fill="#00cc8e"></path><path d="M0 38L55 38L110 36L165 39L220 32L275 38L331 33L386 40L441 41L496 36L551 34L606 35L606 28L551 28L496 31L441 34L386 35L331 29L275 33L220 25L165 31L110 30L55 32L0 31Z" fill="#00cc8e"></path><path d="M0 40L55 42L110 38L165 42L220 34L275 41L331 36L386 44L441 44L496 39L551 38L606 36L606 33L551 32L496 34L441 39L386 38L331 31L275 36L220 30L165 37L110 34L55 36L0 36Z" fill="#00c189"></path><path d="M0 45L55 47L110 41L165 45L220 41L275 47L331 42L386 47L441 47L496 45L551 44L606 39L606 34L551 36L496 37L441 42L386 42L331 34L275 39L220 32L165 40L110 36L55 40L0 38Z" fill="#00a57d"></path><path d="M0 48L55 51L110 45L165 50L220 43L275 51L331 47L386 49L441 48L496 50L551 49L606 43L606 37L551 42L496 43L441 45L386 45L331 40L275 45L220 39L165 43L110 39L55 45L0 43Z" fill="#008a6e"></path><path d="M0 59L55 58L110 59L165 60L220 59L275 57L331 59L386 60L441 59L496 60L551 59L606 58L606 41L551 47L496 48L441 46L386 47L331 45L275 49L220 41L165 48L110 43L55 49L0 46Z" fill="#006f5e"></path><path d="M0 61L55 61L110 61L165 61L220 61L275 61L331 61L386 61L441 61L496 61L551 61L606 61L606 56L551 57L496 58L441 57L386 58L331 57L275 55L220 57L165 58L110 57L55 56L0 57Z" fill="#00564c"></path></svg>