<svg id="visual" viewBox="0 0 606 60" width="606" height="60" xmlns="http://www.w3.org/2000/svg" xmlns:xlink="http://www.w3.org/1999/xlink" version="1.1"><path d="M0 3L55 6L110 6L165 5L220 6L275 5L331 8L386 7L441 9L496 8L551 7L606 5L606 0L551 0L496 0L441 0L386 0L331 0L275 0L220 0L165 0L110 0L55 0L0 0Z" fill="#00cc8e"></path><path d="M0 22L55 15L110 23L165 22L220 23L275 21L331 30L386 21L441 18L496 31L551 26L606 23L606 3L551 5L496 6L441 7L386 5L331 6L275 3L220 4L165 3L110 4L55 4L0 1Z" fill="#00ba87"></path><path d="M0 32L55 25L110 32L165 33L220 27L275 33L331 36L386 27L441 23L496 38L551 33L606 27L606 21L551 24L496 29L441 16L386 19L331 28L275 19L220 21L165 20L110 21L55 13L0 20Z" fill="#00a97f"></path><path d="M0 44L55 36L110 41L165 41L220 42L275 42L331 45L386 42L441 39L496 45L551 42L606 47L606 25L551 31L496 36L441 21L386 25L331 34L275 31L220 25L165 31L110 30L55 23L0 30Z" fill="#009876"></path><path d="M0 48L55 45L110 49L165 51L220 51L275 49L331 51L386 46L441 46L496 48L551 47L606 50L606 45L551 40L496 43L441 37L386 40L331 43L275 40L220 40L165 39L110 39L55 34L0 42Z" fill="#00876c"></path><path d="M0 51L55 51L110 54L165 53L220 53L275 52L331 56L386 52L441 49L496 51L551 52L606 52L606 48L551 45L496 46L441 44L386 44L331 49L275 47L220 49L165 49L110 47L55 43L0 46Z" fill="#007662"></path><path d="M0 56L55 56L110 58L165 56L220 56L275 58L331 59L386 56L441 56L496 57L551 59L606 57L606 50L551 50L496 49L441 47L386 50L331 54L275 50L220 51L165 51L110 52L55 49L0 49Z" fill="#006657"></path><path d="M0 61L55 61L110 61L165 61L220 61L275 61L331 61L386 61L441 61L496 61L551 61L606 61L606 55L551 57L496 55L441 54L386 54L331 57L275 56L220 54L165 54L110 56L55 54L0 54Z" fill="#00564c"></path></svg>