<svg id="visual" viewBox="0 0 606 60" width="606" height="60" xmlns="http://www.w3.org/2000/svg" xmlns:xlink="http://www.w3.org/1999/xlink" version="1.1"><rect x="0" y="0" width="606" height="60" fill="#ababab"></rect><g fill="#626262"><circle r="22" cx="39" cy="41"></circle><circle r="14" cx="292" cy="33"></circle><circle r="17" cx="392" cy="15"></circle><circle r="16" cx="187" cy="40"></circle><circle r="18" cx="96" cy="47"></circle><circle r="14" cx="114" cy="2"></circle><circle r="19" cx="471" cy="25"></circle><circle r="18" cx="556" cy="54"></circle><circle r="15" cx="230" cy="23"></circle><circle r="15" cx="431" cy="58"></circle><circle r="17" cx="601" cy="35"></circle><circle r="18" cx="338" cy="20"></circle><circle r="14" cx="510" cy="49"></circle><circle r="15" cx="550" cy="10"></circle><circle r="16" cx="8" cy="2"></circle><circle r="20" cx="60" cy="3"></circle><circle r="16" cx="370" cy="57"></circle><circle r="16" cx="139" cy="48"></circle></g></svg>