<svg id="visual" viewBox="0 0 606 60" width="606" height="60" xmlns="http://www.w3.org/2000/svg" xmlns:xlink="http://www.w3.org/1999/xlink" version="1.1"><rect width="606" height="60" fill="#464646"></rect><g><g transform="translate(404 23)"><path d="M14.9 -11.7C18.5 -7.4 20 -1.3 18.9 4.7C17.9 10.7 14.3 16.5 9.2 18.7C4.2 21 -2.4 19.8 -8.1 17C-13.8 14.1 -18.7 9.8 -20.5 4C-22.3 -1.7 -21 -8.7 -17.1 -13.1C-13.2 -17.4 -6.6 -19 -0.5 -18.7C5.7 -18.3 11.4 -16 14.9 -11.7Z" stroke="#a8a8a8" fill="none" stroke-width="20"></path></g><g transform="translate(507 53)"><path d="M11.9 -9.3C14.9 -5.7 16.5 -0.8 15.7 3.8C14.8 8.5 11.5 12.8 7.2 15C2.8 17.2 -2.7 17.1 -7.1 14.9C-11.4 12.8 -14.6 8.4 -15.3 3.9C-16 -0.6 -14.2 -5.3 -11.3 -8.8C-8.3 -12.4 -4.1 -14.9 0.2 -15C4.4 -15.1 8.9 -12.9 11.9 -9.3Z" stroke="#a8a8a8" fill="none" stroke-width="20"></path></g><g transform="translate(225 42)"><path d="M13.9 -11.5C16.9 -7.4 17.4 -1.6 16.3 3.9C15.2 9.5 12.5 15 8.2 17.1C3.9 19.2 -2.1 18 -6.7 15.2C-11.4 12.5 -14.7 8.3 -16 3.4C-17.4 -1.6 -16.8 -7.2 -13.8 -11.4C-10.8 -15.5 -5.4 -18.1 0 -18.2C5.5 -18.2 11 -15.7 13.9 -11.5Z" stroke="#a8a8a8" fill="none" stroke-width="20"></path></g><g transform="translate(580 44)"><path d="M11.7 -9.8C14.5 -5.9 15.5 -1.1 14.5 3.2C13.4 7.6 10.4 11.4 6.3 13.4C2.3 15.4 -2.7 15.7 -6.7 13.8C-10.7 11.9 -13.8 7.9 -14.6 3.6C-15.4 -0.7 -13.9 -5.3 -11.1 -9.2C-8.3 -13.1 -4.1 -16.4 0.2 -16.5C4.5 -16.7 9 -13.7 11.7 -9.8Z" stroke="#a8a8a8" fill="none" stroke-width="20"></path></g><g transform="translate(173 22)"><path d="M15.6 -11.6C19.6 -7.5 21.7 -1 20.6 5C19.5 11.1 15.2 16.8 9.4 19.6C3.6 22.5 -3.6 22.5 -8.9 19.5C-14.2 16.6 -17.5 10.7 -18.7 4.5C-19.9 -1.6 -18.9 -7.9 -15.4 -11.9C-11.9 -15.9 -6 -17.5 -0.1 -17.4C5.8 -17.4 11.7 -15.7 15.6 -11.6Z" stroke="#a8a8a8" fill="none" stroke-width="20"></path></g><g transform="translate(9 22)"><path d="M11.9 -9.5C14.8 -6 15.9 -1 14.8 3.3C13.8 7.6 10.5 11.4 6.3 13.7C2 16 -3.3 16.9 -7.7 15.1C-12.2 13.3 -15.8 8.9 -16.6 4.1C-17.4 -0.6 -15.3 -5.6 -12.1 -9.2C-8.9 -12.9 -4.4 -15.2 0.1 -15.2C4.5 -15.3 9.1 -13.1 11.9 -9.5Z" stroke="#a8a8a8" fill="none" stroke-width="20"></path></g><g transform="translate(120 23)"><path d="M12.4 -10C15.4 -6.2 16.5 -1.1 15.5 3.6C14.5 8.3 11.3 12.6 6.9 14.9C2.6 17.2 -3 17.5 -7.3 15.4C-11.6 13.2 -14.5 8.6 -15.4 3.8C-16.3 -1 -15 -6 -12.1 -9.8C-9.2 -13.6 -4.6 -16.2 0.1 -16.3C4.7 -16.4 9.5 -13.8 12.4 -10Z" stroke="#a8a8a8" fill="none" stroke-width="20"></path></g><g transform="translate(345 3)"><path d="M12.7 -10C15.7 -6.4 16.8 -1.1 15.8 3.7C14.7 8.5 11.6 12.9 7.2 15C2.9 17.1 -2.5 16.9 -6.5 14.6C-10.5 12.3 -13 7.9 -14 3.2C-15 -1.4 -14.5 -6.3 -12 -9.8C-9.4 -13.3 -4.7 -15.3 0.1 -15.4C4.9 -15.4 9.7 -13.5 12.7 -10Z" stroke="#a8a8a8" fill="none" stroke-width="20"></path></g><g transform="translate(64 7)"><path d="M11.2 -9.3C13.7 -5.8 14.3 -1.2 13.5 3.3C12.7 7.8 10.4 12.2 6.5 14.6C2.6 16.9 -2.9 17.1 -7.1 15C-11.3 12.9 -14.2 8.4 -15 3.8C-15.7 -0.8 -14.2 -5.5 -11.3 -9.1C-8.5 -12.7 -4.2 -15.2 0 -15.2C4.3 -15.3 8.7 -12.8 11.2 -9.3Z" stroke="#a8a8a8" fill="none" stroke-width="20"></path></g><g transform="translate(485 4)"><path d="M15.6 -12.3C19 -8.2 19.6 -1.8 17.8 3.4C16.1 8.6 12.1 12.7 7.4 14.6C2.7 16.6 -2.6 16.6 -7.8 14.7C-13.1 12.8 -18.2 9 -19.7 4C-21.3 -1.1 -19.4 -7.5 -15.5 -11.7C-11.6 -15.9 -5.8 -18 0.2 -18.1C6.1 -18.2 12.2 -16.4 15.6 -12.3Z" stroke="#a8a8a8" fill="none" stroke-width="20"></path></g><g transform="translate(324 56)"><path d="M11.4 -9.1C14.2 -5.5 15.6 -0.8 14.8 3.7C14 8.2 11 12.4 6.9 14.5C2.8 16.5 -2.4 16.2 -6.2 14C-10 11.7 -12.2 7.5 -13.3 3C-14.3 -1.5 -14.2 -6.3 -11.7 -9.9C-9.3 -13.4 -4.7 -15.6 -0.2 -15.5C4.3 -15.3 8.5 -12.8 11.4 -9.1Z" stroke="#a8a8a8" fill="none" stroke-width="20"></path></g><g transform="translate(538 3)"><path d="M13.8 -11C17.5 -6.3 19.9 -0.6 19.2 5.1C18.5 10.9 14.6 16.6 9.3 19.2C3.9 21.7 -2.9 21.1 -8 18.1C-13 15.1 -16.2 9.8 -17.2 4.3C-18.2 -1.2 -16.9 -6.8 -13.7 -11.4C-10.4 -15.9 -5.2 -19.3 -0.1 -19.2C5 -19.2 10.1 -15.6 13.8 -11Z" stroke="#a8a8a8" fill="none" stroke-width="20"></path></g><g transform="translate(454 49)"><path d="M13.2 -10.3C16.4 -6.6 17.7 -1.1 16.7 4C15.7 9.2 12.4 14.1 7.7 16.6C3 19.1 -3.2 19.3 -7.9 16.8C-12.6 14.4 -15.9 9.4 -17.2 3.9C-18.5 -1.6 -17.8 -7.6 -14.6 -11.3C-11.4 -15.1 -5.7 -16.5 -0.3 -16.3C5 -16 10.1 -14 13.2 -10.3Z" stroke="#a8a8a8" fill="none" stroke-width="20"></path></g><g transform="translate(288 18)"><path d="M10.4 -8.6C13.1 -5 14.6 -0.7 13.9 3.5C13.2 7.6 10.3 11.6 6.4 13.6C2.5 15.6 -2.5 15.7 -6.6 13.7C-10.7 11.7 -13.7 7.8 -14.6 3.5C-15.5 -0.9 -14.2 -5.5 -11.4 -9.3C-8.6 -13 -4.3 -15.7 -0.2 -15.5C3.9 -15.3 7.8 -12.3 10.4 -8.6Z" stroke="#a8a8a8" fill="none" stroke-width="20"></path></g></g></svg>