<svg id="visual" viewBox="0 0 606 60" width="606" height="60" xmlns="http://www.w3.org/2000/svg" xmlns:xlink="http://www.w3.org/1999/xlink" version="1.1"><rect x="0" y="0" width="606" height="60" fill="#404040"></rect><defs><linearGradient id="grad1_0" x1="90.1%" y1="0%" x2="100%" y2="100%"><stop offset="-152%" stop-color="#c1c1c1" stop-opacity="1"></stop><stop offset="252%" stop-color="#c1c1c1" stop-opacity="1"></stop></linearGradient></defs><defs><linearGradient id="grad1_1" x1="90.1%" y1="0%" x2="100%" y2="100%"><stop offset="-152%" stop-color="#c1c1c1" stop-opacity="1"></stop><stop offset="252%" stop-color="#adadad" stop-opacity="1"></stop></linearGradient></defs><defs><linearGradient id="grad1_2" x1="90.1%" y1="0%" x2="100%" y2="100%"><stop offset="-152%" stop-color="#9a9a9a" stop-opacity="1"></stop><stop offset="252%" stop-color="#adadad" stop-opacity="1"></stop></linearGradient></defs><defs><linearGradient id="grad1_3" x1="90.1%" y1="0%" x2="100%" y2="100%"><stop offset="-152%" stop-color="#9a9a9a" stop-opacity="1"></stop><stop offset="252%" stop-color="#878787" stop-opacity="1"></stop></linearGradient></defs><defs><linearGradient id="grad1_4" x1="90.1%" y1="0%" x2="100%" y2="100%"><stop offset="-152%" stop-color="#747474" stop-opacity="1"></stop><stop offset="252%" stop-color="#878787" stop-opacity="1"></stop></linearGradient></defs><defs><linearGradient id="grad1_5" x1="90.1%" y1="0%" x2="100%" y2="100%"><stop offset="-152%" stop-color="#747474" stop-opacity="1"></stop><stop offset="252%" stop-color="#626262" stop-opacity="1"></stop></linearGradient></defs><defs><linearGradient id="grad1_6" x1="90.1%" y1="0%" x2="100%" y2="100%"><stop offset="-152%" stop-color="#515151" stop-opacity="1"></stop><stop offset="252%" stop-color="#626262" stop-opacity="1"></stop></linearGradient></defs><defs><linearGradient id="grad1_7" x1="90.1%" y1="0%" x2="100%" y2="100%"><stop offset="-152%" stop-color="#515151" stop-opacity="1"></stop><stop offset="252%" stop-color="#404040" stop-opacity="1"></stop></linearGradient></defs><defs><linearGradient id="grad2_0" x1="0%" y1="0%" x2="9.9%" y2="100%"><stop offset="-152%" stop-color="#c1c1c1" stop-opacity="1"></stop><stop offset="252%" stop-color="#c1c1c1" stop-opacity="1"></stop></linearGradient></defs><defs><linearGradient id="grad2_1" x1="0%" y1="0%" x2="9.9%" y2="100%"><stop offset="-152%" stop-color="#adadad" stop-opacity="1"></stop><stop offset="252%" stop-color="#c1c1c1" stop-opacity="1"></stop></linearGradient></defs><defs><linearGradient id="grad2_2" x1="0%" y1="0%" x2="9.9%" y2="100%"><stop offset="-152%" stop-color="#adadad" stop-opacity="1"></stop><stop offset="252%" stop-color="#9a9a9a" stop-opacity="1"></stop></linearGradient></defs><defs><linearGradient id="grad2_3" x1="0%" y1="0%" x2="9.9%" y2="100%"><stop offset="-152%" stop-color="#878787" stop-opacity="1"></stop><stop offset="252%" stop-color="#9a9a9a" stop-opacity="1"></stop></linearGradient></defs><defs><linearGradient id="grad2_4" x1="0%" y1="0%" x2="9.9%" y2="100%"><stop offset="-152%" stop-color="#878787" stop-opacity="1"></stop><stop offset="252%" stop-color="#747474" stop-opacity="1"></stop></linearGradient></defs><defs><linearGradient id="grad2_5" x1="0%" y1="0%" x2="9.9%" y2="100%"><stop offset="-152%" stop-color="#626262" stop-opacity="1"></stop><stop offset="252%" stop-color="#747474" stop-opacity="1"></stop></linearGradient></defs><defs><linearGradient id="grad2_6" x1="0%" y1="0%" x2="9.9%" y2="100%"><stop offset="-152%" stop-color="#626262" stop-opacity="1"></stop><stop offset="252%" stop-color="#515151" stop-opacity="1"></stop></linearGradient></defs><defs><linearGradient id="grad2_7" x1="0%" y1="0%" x2="9.9%" y2="100%"><stop offset="-152%" stop-color="#404040" stop-opacity="1"></stop><stop offset="252%" stop-color="#515151" stop-opacity="1"></stop></linearGradient></defs><g transform="translate(606, 0)"><path d="M0 48C-1.8 46 -3.6 44.1 -5.2 42.7C-6.8 41.3 -8.3 40.4 -9.8 39.8C-11.3 39.2 -13 38.9 -14.5 38.3C-16.1 37.8 -17.7 37 -18.6 35.4C-19.5 33.9 -19.7 31.5 -21.6 31.3C-23.5 31 -27.1 32.9 -28.5 32.2C-29.9 31.5 -29.1 28.2 -29.9 26.5C-30.8 24.8 -33.3 24.7 -33.7 23.3C-34.2 21.9 -32.5 19.1 -34.5 18.1C-36.6 17.1 -42.3 18 -44.9 17C-47.5 16.1 -46.9 13.4 -44.7 11C-42.4 8.6 -38.4 6.5 -38.7 4.7C-39 2.9 -43.5 1.5 -48 0L0 0Z" fill="#484848"></path><path d="M0 42C-1.6 40.3 -3.1 38.6 -4.5 37.4C-6 36.1 -7.2 35.4 -8.6 34.8C-9.9 34.3 -11.3 34 -12.7 33.5C-14.1 33.1 -15.5 32.4 -16.3 31C-17 29.6 -17.2 27.6 -18.9 27.4C-20.6 27.2 -23.7 28.8 -24.9 28.2C-26.2 27.5 -25.5 24.7 -26.2 23.2C-26.9 21.7 -29.2 21.6 -29.5 20.4C-29.9 19.1 -28.4 16.7 -30.2 15.9C-32 15 -37 15.7 -39.3 14.9C-41.5 14.1 -41.1 11.7 -39.1 9.6C-37.1 7.5 -33.6 5.7 -33.9 4.1C-34.1 2.5 -38.1 1.3 -42 0L0 0Z" fill="#595959"></path><path d="M0 36C-1.3 34.5 -2.7 33.1 -3.9 32C-5.1 31 -6.2 30.3 -7.4 29.9C-8.5 29.4 -9.7 29.2 -10.9 28.8C-12.1 28.3 -13.3 27.7 -13.9 26.6C-14.6 25.4 -14.8 23.6 -16.2 23.5C-17.6 23.3 -20.3 24.7 -21.4 24.1C-22.4 23.6 -21.8 21.2 -22.5 19.9C-23.1 18.6 -25 18.5 -25.3 17.5C-25.6 16.4 -24.4 14.3 -25.9 13.6C-27.4 12.9 -31.7 13.5 -33.7 12.8C-35.6 12.1 -35.2 10.1 -33.5 8.3C-31.8 6.5 -28.8 4.9 -29 3.5C-29.2 2.2 -32.6 1.1 -36 0L0 0Z" fill="#6b6b6b"></path><path d="M0 30C-1.1 28.8 -2.2 27.6 -3.2 26.7C-4.3 25.8 -5.2 25.3 -6.1 24.9C-7.1 24.5 -8.1 24.3 -9.1 24C-10.1 23.6 -11.1 23.1 -11.6 22.1C-12.2 21.2 -12.3 19.7 -13.5 19.5C-14.7 19.4 -16.9 20.6 -17.8 20.1C-18.7 19.7 -18.2 17.6 -18.7 16.6C-19.2 15.5 -20.8 15.5 -21.1 14.6C-21.4 13.7 -20.3 11.9 -21.6 11.3C-22.9 10.7 -26.4 11.2 -28.1 10.6C-29.7 10.1 -29.3 8.4 -27.9 6.9C-26.5 5.4 -24 4.1 -24.2 2.9C-24.4 1.8 -27.2 0.9 -30 0L0 0Z" fill="#7d7d7d"></path><path d="M0 24C-0.9 23 -1.8 22 -2.6 21.3C-3.4 20.6 -4.1 20.2 -4.9 19.9C-5.7 19.6 -6.5 19.4 -7.3 19.2C-8.1 18.9 -8.9 18.5 -9.3 17.7C-9.7 16.9 -9.8 15.8 -10.8 15.6C-11.7 15.5 -13.6 16.4 -14.3 16.1C-15 15.7 -14.5 14.1 -15 13.3C-15.4 12.4 -16.7 12.4 -16.9 11.6C-17.1 10.9 -16.3 9.5 -17.3 9.1C-18.3 8.6 -21.1 9 -22.4 8.5C-23.7 8 -23.5 6.7 -22.3 5.5C-21.2 4.3 -19.2 3.2 -19.4 2.4C-19.5 1.5 -21.7 0.7 -24 0L0 0Z" fill="#909090"></path><path d="M0 18C-0.7 17.3 -1.3 16.5 -1.9 16C-2.6 15.5 -3.1 15.2 -3.7 14.9C-4.3 14.7 -4.9 14.6 -5.5 14.4C-6 14.2 -6.6 13.9 -7 13.3C-7.3 12.7 -7.4 11.8 -8.1 11.7C-8.8 11.6 -10.2 12.3 -10.7 12.1C-11.2 11.8 -10.9 10.6 -11.2 9.9C-11.5 9.3 -12.5 9.3 -12.7 8.7C-12.8 8.2 -12.2 7.2 -12.9 6.8C-13.7 6.4 -15.9 6.7 -16.8 6.4C-17.8 6 -17.6 5 -16.7 4.1C-15.9 3.2 -14.4 2.4 -14.5 1.8C-14.6 1.1 -16.3 0.5 -18 0L0 0Z" fill="#a3a3a3"></path><path d="M0 12C-0.4 11.5 -0.9 11 -1.3 10.7C-1.7 10.3 -2.1 10.1 -2.5 10C-2.8 9.8 -3.2 9.7 -3.6 9.6C-4 9.4 -4.4 9.2 -4.6 8.9C-4.9 8.5 -4.9 7.9 -5.4 7.8C-5.9 7.8 -6.8 8.2 -7.1 8C-7.5 7.9 -7.3 7.1 -7.5 6.6C-7.7 6.2 -8.3 6.2 -8.4 5.8C-8.5 5.5 -8.1 4.8 -8.6 4.5C-9.1 4.3 -10.6 4.5 -11.2 4.3C-11.9 4 -11.7 3.4 -11.2 2.8C-10.6 2.2 -9.6 1.6 -9.7 1.2C-9.7 0.7 -10.9 0.4 -12 0L0 0Z" fill="#b7b7b7"></path><path d="M0 6C-0.2 5.8 -0.4 5.5 -0.6 5.3C-0.9 5.2 -1 5.1 -1.2 5C-1.4 4.9 -1.6 4.9 -1.8 4.8C-2 4.7 -2.2 4.6 -2.3 4.4C-2.4 4.2 -2.5 3.9 -2.7 3.9C-2.9 3.9 -3.4 4.1 -3.6 4C-3.7 3.9 -3.6 3.5 -3.7 3.3C-3.8 3.1 -4.2 3.1 -4.2 2.9C-4.3 2.7 -4.1 2.4 -4.3 2.3C-4.6 2.1 -5.3 2.2 -5.6 2.1C-5.9 2 -5.9 1.7 -5.6 1.4C-5.3 1.1 -4.8 0.8 -4.8 0.6C-4.9 0.4 -5.4 0.2 -6 0L0 0Z" fill="#c1c1c1"></path></g><g transform="translate(0, 60)"><path d="M0 -48C1.7 -46 3.4 -43.9 5.3 -43.7C7.2 -43.4 9.4 -44.9 10.8 -43.7C12.2 -42.5 12.8 -38.5 13.8 -36.5C14.8 -34.4 16.2 -34.2 18.1 -34.5C20.1 -34.8 22.6 -35.6 24.4 -35.4C26.3 -35.1 27.4 -33.9 29.2 -32.9C30.9 -32 33.2 -31.4 32.9 -29.2C32.7 -26.9 29.9 -23 32.1 -22.2C34.3 -21.3 41.5 -23.4 42.5 -22.3C43.5 -21.2 38.2 -16.7 38.3 -14.5C38.5 -12.4 44 -12.5 45.6 -11.2C47.2 -10 44.9 -7.5 44.7 -5.4C44.4 -3.3 46.2 -1.7 48 0L0 0Z" fill="#484848"></path><path d="M0 -42C1.5 -40.2 3 -38.5 4.6 -38.2C6.3 -38 8.2 -39.3 9.4 -38.2C10.6 -37.2 11.2 -33.7 12.1 -31.9C13 -30.1 14.2 -29.9 15.9 -30.2C17.6 -30.5 19.8 -31.2 21.4 -31C23 -30.8 24 -29.6 25.5 -28.8C27 -28 29 -27.5 28.8 -25.5C28.6 -23.6 26.1 -20.1 28.1 -19.4C30 -18.6 36.3 -20.5 37.2 -19.5C38 -18.5 33.4 -14.6 33.5 -12.7C33.7 -10.8 38.5 -10.9 39.9 -9.8C41.3 -8.8 39.3 -6.6 39.1 -4.7C38.9 -2.9 40.4 -1.5 42 0L0 0Z" fill="#595959"></path><path d="M0 -36C1.3 -34.5 2.5 -33 4 -32.8C5.4 -32.6 7 -33.7 8.1 -32.8C9.1 -31.9 9.6 -28.9 10.4 -27.3C11.1 -25.8 12.1 -25.7 13.6 -25.9C15 -26.1 16.9 -26.7 18.3 -26.5C19.7 -26.4 20.6 -25.4 21.9 -24.7C23.2 -24 24.9 -23.6 24.7 -21.9C24.5 -20.2 22.4 -17.3 24.1 -16.6C25.7 -16 31.1 -17.6 31.9 -16.7C32.6 -15.9 28.6 -12.5 28.8 -10.9C28.9 -9.3 33 -9.3 34.2 -8.4C35.4 -7.5 33.7 -5.6 33.5 -4.1C33.3 -2.5 34.7 -1.2 36 0L0 0Z" fill="#6b6b6b"></path><path d="M0 -30C1.1 -28.7 2.1 -27.5 3.3 -27.3C4.5 -27.1 5.9 -28.1 6.7 -27.3C7.6 -26.5 8 -24.1 8.6 -22.8C9.3 -21.5 10.1 -21.4 11.3 -21.6C12.5 -21.8 14.1 -22.3 15.3 -22.1C16.4 -22 17.2 -21.2 18.2 -20.6C19.3 -20 20.7 -19.6 20.6 -18.2C20.4 -16.8 18.7 -14.4 20.1 -13.8C21.4 -13.3 26 -14.7 26.6 -13.9C27.2 -13.2 23.9 -10.4 24 -9.1C24 -7.7 27.5 -7.8 28.5 -7C29.5 -6.3 28.1 -4.7 27.9 -3.4C27.8 -2.1 28.9 -1 30 0L0 0Z" fill="#7d7d7d"></path><path d="M0 -24C0.8 -23 1.7 -22 2.7 -21.8C3.6 -21.7 4.7 -22.5 5.4 -21.8C6.1 -21.2 6.4 -19.3 6.9 -18.2C7.4 -17.2 8.1 -17.1 9.1 -17.3C10 -17.4 11.3 -17.8 12.2 -17.7C13.1 -17.6 13.7 -16.9 14.6 -16.5C15.5 -16 16.6 -15.7 16.5 -14.6C16.3 -13.5 14.9 -11.5 16 -11.1C17.2 -10.6 20.8 -11.7 21.3 -11.2C21.7 -10.6 19.1 -8.4 19.2 -7.3C19.2 -6.2 22 -6.2 22.8 -5.6C23.6 -5 22.5 -3.8 22.3 -2.7C22.2 -1.7 23.1 -0.8 24 0L0 0Z" fill="#909090"></path><path d="M0 -18C0.6 -17.2 1.3 -16.5 2 -16.4C2.7 -16.3 3.5 -16.8 4 -16.4C4.6 -15.9 4.8 -14.4 5.2 -13.7C5.6 -12.9 6.1 -12.8 6.8 -12.9C7.5 -13.1 8.5 -13.4 9.2 -13.3C9.9 -13.2 10.3 -12.7 10.9 -12.4C11.6 -12 12.4 -11.8 12.4 -10.9C12.3 -10.1 11.2 -8.6 12 -8.3C12.9 -8 15.6 -8.8 15.9 -8.4C16.3 -7.9 14.3 -6.3 14.4 -5.5C14.4 -4.6 16.5 -4.7 17.1 -4.2C17.7 -3.8 16.8 -2.8 16.8 -2C16.7 -1.2 17.3 -0.6 18 0L0 0Z" fill="#a3a3a3"></path><path d="M0 -12C0.4 -11.5 0.8 -11 1.3 -10.9C1.8 -10.9 2.3 -11.2 2.7 -10.9C3 -10.6 3.2 -9.6 3.5 -9.1C3.7 -8.6 4 -8.6 4.5 -8.6C5 -8.7 5.6 -8.9 6.1 -8.8C6.6 -8.8 6.9 -8.5 7.3 -8.2C7.7 -8 8.3 -7.9 8.2 -7.3C8.2 -6.7 7.5 -5.8 8 -5.5C8.6 -5.3 10.4 -5.9 10.6 -5.6C10.9 -5.3 9.5 -4.2 9.6 -3.6C9.6 -3.1 11 -3.1 11.4 -2.8C11.8 -2.5 11.2 -1.9 11.2 -1.4C11.1 -0.8 11.6 -0.4 12 0L0 0Z" fill="#b7b7b7"></path><path d="M0 -6C0.2 -5.7 0.4 -5.5 0.7 -5.5C0.9 -5.4 1.2 -5.6 1.3 -5.5C1.5 -5.3 1.6 -4.8 1.7 -4.6C1.9 -4.3 2 -4.3 2.3 -4.3C2.5 -4.4 2.8 -4.5 3.1 -4.4C3.3 -4.4 3.4 -4.2 3.6 -4.1C3.9 -4 4.1 -3.9 4.1 -3.6C4.1 -3.4 3.7 -2.9 4 -2.8C4.3 -2.7 5.2 -2.9 5.3 -2.8C5.4 -2.6 4.8 -2.1 4.8 -1.8C4.8 -1.5 5.5 -1.6 5.7 -1.4C5.9 -1.3 5.6 -0.9 5.6 -0.7C5.6 -0.4 5.8 -0.2 6 0L0 0Z" fill="#c1c1c1"></path></g></svg>