<svg id="visual" viewBox="0 0 606 60" width="606" height="60" xmlns="http://www.w3.org/2000/svg" xmlns:xlink="http://www.w3.org/1999/xlink" version="1.1"><rect x="0" y="0" width="606" height="60" fill="#008981"></rect><defs><linearGradient id="grad1_0" x1="90.1%" y1="0%" x2="100%" y2="100%"><stop offset="-152%" stop-color="#00e8ff" stop-opacity="1"></stop><stop offset="252%" stop-color="#00e8ff" stop-opacity="1"></stop></linearGradient></defs><defs><linearGradient id="grad1_1" x1="90.1%" y1="0%" x2="100%" y2="100%"><stop offset="-152%" stop-color="#00e8ff" stop-opacity="1"></stop><stop offset="252%" stop-color="#00b8bd" stop-opacity="1"></stop></linearGradient></defs><defs><linearGradient id="grad1_2" x1="90.1%" y1="0%" x2="100%" y2="100%"><stop offset="-152%" stop-color="#008981" stop-opacity="1"></stop><stop offset="252%" stop-color="#00b8bd" stop-opacity="1"></stop></linearGradient></defs><defs><linearGradient id="grad2_0" x1="0%" y1="0%" x2="9.9%" y2="100%"><stop offset="-152%" stop-color="#00e8ff" stop-opacity="1"></stop><stop offset="252%" stop-color="#00e8ff" stop-opacity="1"></stop></linearGradient></defs><defs><linearGradient id="grad2_1" x1="0%" y1="0%" x2="9.9%" y2="100%"><stop offset="-152%" stop-color="#00b8bd" stop-opacity="1"></stop><stop offset="252%" stop-color="#00e8ff" stop-opacity="1"></stop></linearGradient></defs><defs><linearGradient id="grad2_2" x1="0%" y1="0%" x2="9.9%" y2="100%"><stop offset="-152%" stop-color="#00b8bd" stop-opacity="1"></stop><stop offset="252%" stop-color="#008981" stop-opacity="1"></stop></linearGradient></defs><g transform="translate(606, 0)"><path d="M0 48C-3.2 44.7 -6.3 41.4 -8.9 39C-11.5 36.6 -13.4 35 -16.9 35.1C-20.4 35.3 -25.5 37.3 -29.3 36.7C-33.1 36.2 -35.7 33.2 -37.5 29.9C-39.4 26.7 -40.6 23.3 -41.4 20C-42.3 16.6 -42.8 13.3 -43.9 10C-44.9 6.7 -46.5 3.3 -48 0L0 0Z" fill="#00a09e"></path><path d="M0 32C-2.1 29.8 -4.2 27.6 -5.9 26C-7.6 24.4 -8.9 23.3 -11.3 23.4C-13.6 23.5 -17 24.9 -19.5 24.5C-22.1 24.1 -23.8 22.1 -25 20C-26.3 17.8 -27.1 15.5 -27.6 13.3C-28.2 11.1 -28.6 8.9 -29.2 6.7C-29.9 4.5 -31 2.2 -32 0L0 0Z" fill="#00d0dd"></path><path d="M0 16C-1.1 14.9 -2.1 13.8 -3 13C-3.8 12.2 -4.5 11.7 -5.6 11.7C-6.8 11.8 -8.5 12.4 -9.8 12.2C-11 12.1 -11.9 11.1 -12.5 10C-13.1 8.9 -13.5 7.8 -13.8 6.7C-14.1 5.5 -14.3 4.4 -14.6 3.3C-15 2.2 -15.5 1.1 -16 0L0 0Z" fill="#00e8ff"></path></g><g transform="translate(0, 60)"><path d="M0 -48C3.3 -46.5 6.6 -45.1 10 -43.9C13.4 -42.7 17 -41.7 18.7 -38.7C20.4 -35.8 20.2 -30.8 23.7 -29.7C27.2 -28.6 34.2 -31.3 37.5 -29.9C40.8 -28.6 40.4 -23.3 39.6 -19.1C38.8 -14.9 37.7 -11.9 39 -8.9C40.3 -5.9 44.2 -3 48 0L0 0Z" fill="#00a09e"></path><path d="M0 -32C2.2 -31 4.4 -30.1 6.7 -29.2C9 -28.4 11.3 -27.8 12.4 -25.8C13.6 -23.9 13.5 -20.6 15.8 -19.8C18.1 -19.1 22.8 -20.8 25 -20C27.2 -19.1 27 -15.5 26.4 -12.7C25.9 -9.9 25.1 -7.9 26 -5.9C26.9 -3.9 29.4 -2 32 0L0 0Z" fill="#00d0dd"></path><path d="M0 -16C1.1 -15.5 2.2 -15 3.3 -14.6C4.5 -14.2 5.7 -13.9 6.2 -12.9C6.8 -11.9 6.7 -10.3 7.9 -9.9C9.1 -9.5 11.4 -10.4 12.5 -10C13.6 -9.5 13.5 -7.8 13.2 -6.4C12.9 -5 12.6 -4 13 -3C13.4 -2 14.7 -1 16 0L0 0Z" fill="#00e8ff"></path></g></svg>