<svg id="visual" viewBox="0 0 606 60" width="606" height="60" xmlns="http://www.w3.org/2000/svg" xmlns:xlink="http://www.w3.org/1999/xlink" version="1.1"><rect x="0" y="0" width="606" height="60" fill="#1100be"></rect><defs><linearGradient id="grad1_0" x1="90.1%" y1="0%" x2="100%" y2="100%"><stop offset="-152%" stop-color="#ff00d8" stop-opacity="1"></stop><stop offset="252%" stop-color="#ff00d8" stop-opacity="1"></stop></linearGradient></defs><defs><linearGradient id="grad1_1" x1="90.1%" y1="0%" x2="100%" y2="100%"><stop offset="-152%" stop-color="#ff00d8" stop-opacity="1"></stop><stop offset="252%" stop-color="#a500ce" stop-opacity="1"></stop></linearGradient></defs><defs><linearGradient id="grad1_2" x1="90.1%" y1="0%" x2="100%" y2="100%"><stop offset="-152%" stop-color="#1100be" stop-opacity="1"></stop><stop offset="252%" stop-color="#a500ce" stop-opacity="1"></stop></linearGradient></defs><defs><linearGradient id="grad2_0" x1="0%" y1="0%" x2="9.9%" y2="100%"><stop offset="-152%" stop-color="#ff00d8" stop-opacity="1"></stop><stop offset="252%" stop-color="#ff00d8" stop-opacity="1"></stop></linearGradient></defs><defs><linearGradient id="grad2_1" x1="0%" y1="0%" x2="9.9%" y2="100%"><stop offset="-152%" stop-color="#a500ce" stop-opacity="1"></stop><stop offset="252%" stop-color="#ff00d8" stop-opacity="1"></stop></linearGradient></defs><defs><linearGradient id="grad2_2" x1="0%" y1="0%" x2="9.9%" y2="100%"><stop offset="-152%" stop-color="#a500ce" stop-opacity="1"></stop><stop offset="252%" stop-color="#1100be" stop-opacity="1"></stop></linearGradient></defs><g transform="translate(606, 0)"><path d="M0 60C-2.2 55.5 -4.5 51 -7.3 50.5C-10 50 -13.3 53.5 -15.5 52.8C-17.7 52.1 -18.7 47.2 -20.4 44.6C-22 42 -24.2 41.6 -26.5 41.2C-28.8 40.8 -31.3 40.4 -35.4 40.8C-39.4 41.2 -45.2 42.6 -45.3 39.3C-45.5 36 -40.2 28.2 -36.2 23.2C-32.1 18.3 -29.3 16.2 -35.5 16.2C-41.6 16.2 -56.7 18.3 -55.7 16.3C-54.6 14.4 -37.6 8.5 -35.6 5.1C-33.7 1.7 -46.8 0.9 -60 0L0 0Z" fill="#6f00c7"></path><path d="M0 40C-1.5 37 -3 34 -4.8 33.7C-6.7 33.3 -8.9 35.6 -10.3 35.2C-11.8 34.7 -12.5 31.5 -13.6 29.7C-14.7 28 -16.1 27.7 -17.7 27.5C-19.2 27.2 -20.9 26.9 -23.6 27.2C-26.3 27.5 -30.1 28.4 -30.2 26.2C-30.4 24 -26.8 18.8 -24.1 15.5C-21.4 12.2 -19.6 10.8 -23.7 10.8C-27.7 10.8 -37.8 12.2 -37.1 10.9C-36.4 9.6 -25.1 5.7 -23.8 3.4C-22.5 1.2 -31.2 0.6 -40 0L0 0Z" fill="#d400d4"></path><path d="M0 20C-0.7 18.5 -1.5 17 -2.4 16.8C-3.3 16.7 -4.4 17.8 -5.2 17.6C-5.9 17.4 -6.2 15.7 -6.8 14.9C-7.3 14 -8.1 13.9 -8.8 13.7C-9.6 13.6 -10.4 13.5 -11.8 13.6C-13.1 13.7 -15.1 14.2 -15.1 13.1C-15.2 12 -13.4 9.4 -12.1 7.7C-10.7 6.1 -9.8 5.4 -11.8 5.4C-13.9 5.4 -18.9 6.1 -18.6 5.4C-18.2 4.8 -12.5 2.8 -11.9 1.7C-11.2 0.6 -15.6 0.3 -20 0L0 0Z" fill="#ff00d8"></path></g><g transform="translate(0, 60)"><path d="M0 -60C1.6 -49.5 3.2 -39 5.4 -37.6C7.6 -36.2 10.5 -44 14.1 -48C17.6 -52 21.8 -52.3 21.2 -46.4C20.6 -40.5 15.1 -28.3 18.4 -28.6C21.6 -28.9 33.5 -41.6 38.6 -44.6C43.8 -47.6 42.1 -40.7 43.1 -37.3C44 -33.9 47.6 -33.9 50.5 -32.4C53.4 -31 55.6 -28.1 51.8 -23.7C48.1 -19.2 38.3 -13.1 33.6 -9.9C28.9 -6.6 29.4 -6.2 34.6 -5C39.9 -3.8 50 -1.9 60 0L0 0Z" fill="#6f00c7"></path><path d="M0 -40C1.1 -33 2.1 -26 3.6 -25.1C5.1 -24.2 7 -29.3 9.4 -32C11.8 -34.7 14.5 -34.9 14.1 -30.9C13.7 -27 10.1 -18.9 12.3 -19.1C14.4 -19.3 22.3 -27.8 25.8 -29.7C29.2 -31.7 28.1 -27.2 28.7 -24.9C29.4 -22.6 31.7 -22.6 33.7 -21.6C35.6 -20.7 37.1 -18.8 34.6 -15.8C32 -12.8 25.5 -8.7 22.4 -6.6C19.3 -4.4 19.6 -4.1 23.1 -3.3C26.6 -2.5 33.3 -1.3 40 0L0 0Z" fill="#d400d4"></path><path d="M0 -20C0.5 -16.5 1.1 -13 1.8 -12.5C2.5 -12.1 3.5 -14.7 4.7 -16C5.9 -17.3 7.3 -17.4 7.1 -15.5C6.9 -13.5 5 -9.4 6.1 -9.5C7.2 -9.6 11.2 -13.9 12.9 -14.9C14.6 -15.9 14 -13.6 14.4 -12.4C14.7 -11.3 15.9 -11.3 16.8 -10.8C17.8 -10.3 18.5 -9.4 17.3 -7.9C16 -6.4 12.8 -4.4 11.2 -3.3C9.6 -2.2 9.8 -2.1 11.5 -1.7C13.3 -1.3 16.7 -0.6 20 0L0 0Z" fill="#ff00d8"></path></g></svg>