<svg id="visual" viewBox="0 0 606 60" width="606" height="60" xmlns="http://www.w3.org/2000/svg" xmlns:xlink="http://www.w3.org/1999/xlink" version="1.1"><rect x="0" y="0" width="606" height="60" fill="#4b2238"></rect><defs><linearGradient id="grad1_0" x1="90.1%" y1="0%" x2="100%" y2="100%"><stop offset="-152%" stop-color="#5ac700" stop-opacity="1"></stop><stop offset="252%" stop-color="#5ac700" stop-opacity="1"></stop></linearGradient></defs><defs><linearGradient id="grad1_1" x1="90.1%" y1="0%" x2="100%" y2="100%"><stop offset="-152%" stop-color="#5ac700" stop-opacity="1"></stop><stop offset="252%" stop-color="#a95515" stop-opacity="1"></stop></linearGradient></defs><defs><linearGradient id="grad1_2" x1="90.1%" y1="0%" x2="100%" y2="100%"><stop offset="-152%" stop-color="#4b2238" stop-opacity="1"></stop><stop offset="252%" stop-color="#a95515" stop-opacity="1"></stop></linearGradient></defs><defs><linearGradient id="grad2_0" x1="0%" y1="0%" x2="9.9%" y2="100%"><stop offset="-152%" stop-color="#5ac700" stop-opacity="1"></stop><stop offset="252%" stop-color="#5ac700" stop-opacity="1"></stop></linearGradient></defs><defs><linearGradient id="grad2_1" x1="0%" y1="0%" x2="9.9%" y2="100%"><stop offset="-152%" stop-color="#a95515" stop-opacity="1"></stop><stop offset="252%" stop-color="#5ac700" stop-opacity="1"></stop></linearGradient></defs><defs><linearGradient id="grad2_2" x1="0%" y1="0%" x2="9.9%" y2="100%"><stop offset="-152%" stop-color="#a95515" stop-opacity="1"></stop><stop offset="252%" stop-color="#4b2238" stop-opacity="1"></stop></linearGradient></defs><g transform="translate(606, 0)"><path d="M0 60C-2.8 56 -5.7 52 -9 51.2C-12.4 50.5 -16.3 52.9 -18.8 51.7C-21.4 50.4 -22.6 45.4 -24.5 42.4C-26.4 39.5 -29.1 38.6 -30.9 36.8C-32.6 35 -33.5 32.3 -37.5 31.5C-41.5 30.7 -48.6 31.7 -52 30C-55.3 28.3 -55 23.9 -55.4 20.2C-55.9 16.5 -57.2 13.5 -58.1 10.2C-59 7 -59.5 3.5 -60 0L0 0Z" fill="#863037"></path><path d="M0 40C-1.9 37.3 -3.8 34.6 -6 34.1C-8.3 33.6 -10.8 35.3 -12.5 34.5C-14.2 33.6 -15 30.3 -16.3 28.3C-17.6 26.3 -19.4 25.7 -20.6 24.5C-21.8 23.3 -22.4 21.5 -25 21C-27.7 20.5 -32.4 21.1 -34.6 20C-36.9 18.9 -36.6 15.9 -37 13.5C-37.3 11 -38.1 9 -38.7 6.8C-39.3 4.7 -39.7 2.3 -40 0L0 0Z" fill="#a28d00"></path><path d="M0 20C-0.9 18.7 -1.9 17.3 -3 17.1C-4.1 16.8 -5.4 17.6 -6.3 17.2C-7.1 16.8 -7.5 15.1 -8.2 14.1C-8.8 13.2 -9.7 12.9 -10.3 12.3C-10.9 11.7 -11.2 10.8 -12.5 10.5C-13.8 10.2 -16.2 10.6 -17.3 10C-18.4 9.4 -18.3 8 -18.5 6.7C-18.6 5.5 -19.1 4.5 -19.4 3.4C-19.7 2.3 -19.8 1.2 -20 0L0 0Z" fill="#5ac700"></path></g><g transform="translate(0, 60)"><path d="M0 -60C2.9 -56.7 5.7 -53.4 9.4 -53.2C13 -53 17.4 -55.9 19.5 -53.6C21.6 -51.3 21.3 -43.8 24.5 -42.4C27.7 -41.1 34.5 -45.9 38.6 -46C42.6 -46 43.8 -41.4 44.4 -37.3C45 -33.2 45 -29.6 45.9 -26.5C46.8 -23.4 48.7 -20.7 48.9 -17.8C49.1 -14.9 47.7 -11.7 49.2 -8.7C50.8 -5.7 55.4 -2.8 60 0L0 0Z" fill="#863037"></path><path d="M0 -40C1.9 -37.8 3.8 -35.6 6.3 -35.5C8.7 -35.3 11.6 -37.2 13 -35.7C14.4 -34.2 14.2 -29.2 16.3 -28.3C18.5 -27.4 23 -30.6 25.7 -30.6C28.4 -30.7 29.2 -27.6 29.6 -24.9C30 -22.1 30 -19.7 30.6 -17.7C31.2 -15.6 32.4 -13.8 32.6 -11.9C32.7 -9.9 31.8 -7.8 32.8 -5.8C33.9 -3.8 36.9 -1.9 40 0L0 0Z" fill="#a28d00"></path><path d="M0 -20C1 -18.9 1.9 -17.8 3.1 -17.7C4.3 -17.7 5.8 -18.6 6.5 -17.9C7.2 -17.1 7.1 -14.6 8.2 -14.1C9.2 -13.7 11.5 -15.3 12.9 -15.3C14.2 -15.3 14.6 -13.8 14.8 -12.4C15 -11.1 15 -9.9 15.3 -8.8C15.6 -7.8 16.2 -6.9 16.3 -5.9C16.4 -5 15.9 -3.9 16.4 -2.9C16.9 -1.9 18.5 -0.9 20 0L0 0Z" fill="#5ac700"></path></g></svg>