<svg id="visual" viewBox="0 0 606 60" width="606" height="60" xmlns="http://www.w3.org/2000/svg" xmlns:xlink="http://www.w3.org/1999/xlink" version="1.1"><rect x="0" y="0" width="606" height="60" fill="#1e1e1e"></rect><defs><linearGradient id="grad1_0" x1="90.1%" y1="0%" x2="100%" y2="100%"><stop offset="-152%" stop-color="#a9a9f6" stop-opacity="1"></stop><stop offset="252%" stop-color="#a9a9f6" stop-opacity="1"></stop></linearGradient></defs><defs><linearGradient id="grad1_1" x1="90.1%" y1="0%" x2="100%" y2="100%"><stop offset="-152%" stop-color="#a9a9f6" stop-opacity="1"></stop><stop offset="252%" stop-color="#605f81" stop-opacity="1"></stop></linearGradient></defs><defs><linearGradient id="grad1_2" x1="90.1%" y1="0%" x2="100%" y2="100%"><stop offset="-152%" stop-color="#1e1e1e" stop-opacity="1"></stop><stop offset="252%" stop-color="#605f81" stop-opacity="1"></stop></linearGradient></defs><defs><linearGradient id="grad2_0" x1="0%" y1="0%" x2="9.9%" y2="100%"><stop offset="-152%" stop-color="#a9a9f6" stop-opacity="1"></stop><stop offset="252%" stop-color="#a9a9f6" stop-opacity="1"></stop></linearGradient></defs><defs><linearGradient id="grad2_1" x1="0%" y1="0%" x2="9.9%" y2="100%"><stop offset="-152%" stop-color="#605f81" stop-opacity="1"></stop><stop offset="252%" stop-color="#a9a9f6" stop-opacity="1"></stop></linearGradient></defs><defs><linearGradient id="grad2_2" x1="0%" y1="0%" x2="9.9%" y2="100%"><stop offset="-152%" stop-color="#605f81" stop-opacity="1"></stop><stop offset="252%" stop-color="#1e1e1e" stop-opacity="1"></stop></linearGradient></defs><g transform="translate(606, 0)"><path d="M0 60C-3.1 50.5 -6.3 40.9 -10.1 37.7C-13.9 34.4 -18.3 37.5 -21.5 37.2C-24.7 37 -26.5 33.5 -32.5 32.5C-38.5 31.5 -48.6 33 -52 30C-55.3 27 -51.9 19.7 -52.2 14C-52.4 8.2 -56.2 4.1 -60 0L0 0Z" fill="#3e3d4d"></path><path d="M0 40C-2.1 33.6 -4.2 27.3 -6.7 25.1C-9.3 22.9 -12.2 25 -14.3 24.8C-16.4 24.7 -17.7 22.4 -21.7 21.7C-25.7 21 -32.4 22 -34.6 20C-36.9 18 -34.6 13.1 -34.8 9.3C-34.9 5.5 -37.5 2.7 -40 0L0 0Z" fill="#8483ba"></path><path d="M0 20C-1 16.8 -2.1 13.6 -3.4 12.6C-4.6 11.5 -6.1 12.5 -7.2 12.4C-8.2 12.3 -8.8 11.2 -10.8 10.8C-12.8 10.5 -16.2 11 -17.3 10C-18.4 9 -17.3 6.6 -17.4 4.7C-17.5 2.7 -18.7 1.4 -20 0L0 0Z" fill="#a9a9f6"></path></g><g transform="translate(0, 60)"><path d="M0 -60C3.9 -51.9 7.7 -43.7 10.1 -37.7C12.4 -31.6 13.3 -27.6 15 -26C16.7 -24.3 19.4 -25 26.9 -26.9C34.3 -28.8 46.6 -32 52 -30C57.3 -28 55.8 -20.9 56 -15C56.2 -9.1 58.1 -4.6 60 0L0 0Z" fill="#3e3d4d"></path><path d="M0 -40C2.6 -34.6 5.2 -29.2 6.7 -25.1C8.3 -21.1 8.8 -18.4 10 -17.3C11.2 -16.2 12.9 -16.6 17.9 -17.9C22.9 -19.2 31.1 -21.3 34.6 -20C38.2 -18.7 37.2 -13.9 37.3 -10C37.5 -6.1 38.7 -3 40 0L0 0Z" fill="#8483ba"></path><path d="M0 -20C1.3 -17.3 2.6 -14.6 3.4 -12.6C4.1 -10.5 4.4 -9.2 5 -8.7C5.6 -8.1 6.5 -8.3 9 -9C11.4 -9.6 15.5 -10.7 17.3 -10C19.1 -9.3 18.6 -7 18.7 -5C18.7 -3 19.4 -1.5 20 0L0 0Z" fill="#a9a9f6"></path></g></svg>