<svg id="visual" viewBox="0 0 606 60" width="606" height="60" xmlns="http://www.w3.org/2000/svg" xmlns:xlink="http://www.w3.org/1999/xlink" version="1.1"><rect x="0" y="0" width="606" height="60" fill="#000000"></rect><defs><linearGradient id="grad1_0" x1="90.1%" y1="0%" x2="100%" y2="100%"><stop offset="-152%" stop-color="#818181" stop-opacity="1"></stop><stop offset="252%" stop-color="#818181" stop-opacity="1"></stop></linearGradient></defs><defs><linearGradient id="grad1_1" x1="90.1%" y1="0%" x2="100%" y2="100%"><stop offset="-152%" stop-color="#818181" stop-opacity="1"></stop><stop offset="252%" stop-color="#6e6e6e" stop-opacity="1"></stop></linearGradient></defs><defs><linearGradient id="grad1_2" x1="90.1%" y1="0%" x2="100%" y2="100%"><stop offset="-152%" stop-color="#5b5b5b" stop-opacity="1"></stop><stop offset="252%" stop-color="#6e6e6e" stop-opacity="1"></stop></linearGradient></defs><defs><linearGradient id="grad1_3" x1="90.1%" y1="0%" x2="100%" y2="100%"><stop offset="-152%" stop-color="#5b5b5b" stop-opacity="1"></stop><stop offset="252%" stop-color="#494949" stop-opacity="1"></stop></linearGradient></defs><defs><linearGradient id="grad1_4" x1="90.1%" y1="0%" x2="100%" y2="100%"><stop offset="-152%" stop-color="#373737" stop-opacity="1"></stop><stop offset="252%" stop-color="#494949" stop-opacity="1"></stop></linearGradient></defs><defs><linearGradient id="grad1_5" x1="90.1%" y1="0%" x2="100%" y2="100%"><stop offset="-152%" stop-color="#373737" stop-opacity="1"></stop><stop offset="252%" stop-color="#272727" stop-opacity="1"></stop></linearGradient></defs><defs><linearGradient id="grad1_6" x1="90.1%" y1="0%" x2="100%" y2="100%"><stop offset="-152%" stop-color="#171717" stop-opacity="1"></stop><stop offset="252%" stop-color="#272727" stop-opacity="1"></stop></linearGradient></defs><defs><linearGradient id="grad1_7" x1="90.1%" y1="0%" x2="100%" y2="100%"><stop offset="-152%" stop-color="#171717" stop-opacity="1"></stop><stop offset="252%" stop-color="#000000" stop-opacity="1"></stop></linearGradient></defs><defs><linearGradient id="grad2_0" x1="0%" y1="0%" x2="9.9%" y2="100%"><stop offset="-152%" stop-color="#818181" stop-opacity="1"></stop><stop offset="252%" stop-color="#818181" stop-opacity="1"></stop></linearGradient></defs><defs><linearGradient id="grad2_1" x1="0%" y1="0%" x2="9.9%" y2="100%"><stop offset="-152%" stop-color="#6e6e6e" stop-opacity="1"></stop><stop offset="252%" stop-color="#818181" stop-opacity="1"></stop></linearGradient></defs><defs><linearGradient id="grad2_2" x1="0%" y1="0%" x2="9.9%" y2="100%"><stop offset="-152%" stop-color="#6e6e6e" stop-opacity="1"></stop><stop offset="252%" stop-color="#5b5b5b" stop-opacity="1"></stop></linearGradient></defs><defs><linearGradient id="grad2_3" x1="0%" y1="0%" x2="9.9%" y2="100%"><stop offset="-152%" stop-color="#494949" stop-opacity="1"></stop><stop offset="252%" stop-color="#5b5b5b" stop-opacity="1"></stop></linearGradient></defs><defs><linearGradient id="grad2_4" x1="0%" y1="0%" x2="9.9%" y2="100%"><stop offset="-152%" stop-color="#494949" stop-opacity="1"></stop><stop offset="252%" stop-color="#373737" stop-opacity="1"></stop></linearGradient></defs><defs><linearGradient id="grad2_5" x1="0%" y1="0%" x2="9.9%" y2="100%"><stop offset="-152%" stop-color="#272727" stop-opacity="1"></stop><stop offset="252%" stop-color="#373737" stop-opacity="1"></stop></linearGradient></defs><defs><linearGradient id="grad2_6" x1="0%" y1="0%" x2="9.9%" y2="100%"><stop offset="-152%" stop-color="#272727" stop-opacity="1"></stop><stop offset="252%" stop-color="#171717" stop-opacity="1"></stop></linearGradient></defs><defs><linearGradient id="grad2_7" x1="0%" y1="0%" x2="9.9%" y2="100%"><stop offset="-152%" stop-color="#000000" stop-opacity="1"></stop><stop offset="252%" stop-color="#171717" stop-opacity="1"></stop></linearGradient></defs><g transform="translate(606, 0)"><path d="M0 60C-5.4 59.9 -10.7 59.8 -15.5 58C-20.3 56.1 -24.6 52.4 -28 48.5C-31.4 44.6 -33.9 40.6 -37.5 37.5C-41.1 34.3 -45.8 32 -49.4 28.5C-52.9 25 -55.4 20.2 -57 15.3C-58.6 10.3 -59.3 5.2 -60 0L0 0Z" fill="#0e0e0e"></path><path d="M0 52.5C-4.7 52.4 -9.4 52.4 -13.6 50.7C-17.8 49.1 -21.5 45.8 -24.5 42.4C-27.5 39.1 -29.6 35.6 -32.8 32.8C-35.9 30 -40.1 28 -43.2 24.9C-46.3 21.9 -48.5 17.7 -49.9 13.4C-51.3 9 -51.9 4.5 -52.5 0L0 0Z" fill="#1f1f1f"></path><path d="M0 45C-4 44.9 -8 44.9 -11.6 43.5C-15.3 42 -18.5 39.3 -21 36.4C-23.5 33.5 -25.4 30.5 -28.1 28.1C-30.8 25.7 -34.3 24 -37 21.4C-39.7 18.7 -41.6 15.2 -42.7 11.5C-43.9 7.7 -44.5 3.9 -45 0L0 0Z" fill="#2f2f2f"></path><path d="M0 37.5C-3.3 37.5 -6.7 37.4 -9.7 36.2C-12.7 35 -15.4 32.7 -17.5 30.3C-19.6 27.9 -21.2 25.4 -23.4 23.4C-25.7 21.5 -28.6 20 -30.9 17.8C-33.1 15.6 -34.6 12.6 -35.6 9.5C-36.6 6.4 -37.1 3.2 -37.5 0L0 0Z" fill="#404040"></path><path d="M0 30C-2.7 30 -5.4 29.9 -7.8 29C-10.2 28 -12.3 26.2 -14 24.2C-15.7 22.3 -16.9 20.3 -18.7 18.7C-20.5 17.2 -22.9 16 -24.7 14.3C-26.5 12.5 -27.7 10.1 -28.5 7.6C-29.3 5.2 -29.6 2.6 -30 0L0 0Z" fill="#525252"></path><path d="M0 22.5C-2 22.5 -4 22.4 -5.8 21.7C-7.6 21 -9.2 19.6 -10.5 18.2C-11.8 16.7 -12.7 15.2 -14.1 14.1C-15.4 12.9 -17.2 12 -18.5 10.7C-19.9 9.4 -20.8 7.6 -21.4 5.7C-22 3.9 -22.2 1.9 -22.5 0L0 0Z" fill="#646464"></path><path d="M0 15C-1.3 15 -2.7 15 -3.9 14.5C-5.1 14 -6.2 13.1 -7 12.1C-7.8 11.2 -8.5 10.2 -9.4 9.4C-10.3 8.6 -11.4 8 -12.3 7.1C-13.2 6.2 -13.9 5.1 -14.2 3.8C-14.6 2.6 -14.8 1.3 -15 0L0 0Z" fill="#777777"></path><path d="M0 7.5C-0.7 7.5 -1.3 7.5 -1.9 7.2C-2.5 7 -3.1 6.5 -3.5 6.1C-3.9 5.6 -4.2 5.1 -4.7 4.7C-5.1 4.3 -5.7 4 -6.2 3.6C-6.6 3.1 -6.9 2.5 -7.1 1.9C-7.3 1.3 -7.4 0.6 -7.5 0L0 0Z" fill="#818181"></path></g><g transform="translate(0, 60)"><path d="M0 -60C5.3 -59.4 10.6 -58.7 15.3 -57C20 -55.3 24.1 -52.4 29 -50.2C33.9 -48 39.6 -46.5 42.4 -42.4C45.2 -38.4 45.2 -31.9 46.8 -27C48.4 -22.1 51.6 -18.7 54.1 -14.5C56.6 -10.3 58.3 -5.1 60 0L0 0Z" fill="#0e0e0e"></path><path d="M0 -52.5C4.6 -51.9 9.2 -51.4 13.4 -49.9C17.5 -48.3 21.1 -45.9 25.4 -44C29.7 -42 34.7 -40.6 37.1 -37.1C39.6 -33.6 39.5 -27.9 40.9 -23.6C42.3 -19.3 45.2 -16.4 47.3 -12.7C49.5 -9 51 -4.5 52.5 0L0 0Z" fill="#1f1f1f"></path><path d="M0 -45C4 -44.5 7.9 -44 11.5 -42.7C15 -41.4 18.1 -39.3 21.7 -37.7C25.4 -36 29.7 -34.8 31.8 -31.8C33.9 -28.8 33.9 -23.9 35.1 -20.3C36.3 -16.6 38.7 -14 40.6 -10.9C42.4 -7.7 43.7 -3.8 45 0L0 0Z" fill="#2f2f2f"></path><path d="M0 -37.5C3.3 -37.1 6.6 -36.7 9.5 -35.6C12.5 -34.5 15.1 -32.8 18.1 -31.4C21.2 -30 24.8 -29 26.5 -26.5C28.3 -24 28.2 -19.9 29.2 -16.9C30.2 -13.8 32.3 -11.7 33.8 -9.1C35.4 -6.4 36.4 -3.2 37.5 0L0 0Z" fill="#404040"></path><path d="M0 -30C2.6 -29.7 5.3 -29.4 7.6 -28.5C10 -27.6 12 -26.2 14.5 -25.1C17 -24 19.8 -23.2 21.2 -21.2C22.6 -19.2 22.6 -16 23.4 -13.5C24.2 -11 25.8 -9.4 27 -7.2C28.3 -5.1 29.1 -2.6 30 0L0 0Z" fill="#525252"></path><path d="M0 -22.5C2 -22.3 4 -22 5.7 -21.4C7.5 -20.7 9 -19.7 10.9 -18.8C12.7 -18 14.9 -17.4 15.9 -15.9C17 -14.4 16.9 -12 17.5 -10.1C18.1 -8.3 19.4 -7 20.3 -5.4C21.2 -3.8 21.9 -1.9 22.5 0L0 0Z" fill="#646464"></path><path d="M0 -15C1.3 -14.8 2.6 -14.7 3.8 -14.2C5 -13.8 6 -13.1 7.2 -12.6C8.5 -12 9.9 -11.6 10.6 -10.6C11.3 -9.6 11.3 -8 11.7 -6.8C12.1 -5.5 12.9 -4.7 13.5 -3.6C14.1 -2.6 14.6 -1.3 15 0L0 0Z" fill="#777777"></path><path d="M0 -7.5C0.7 -7.4 1.3 -7.3 1.9 -7.1C2.5 -6.9 3 -6.6 3.6 -6.3C4.2 -6 5 -5.8 5.3 -5.3C5.7 -4.8 5.6 -4 5.8 -3.4C6 -2.8 6.5 -2.3 6.8 -1.8C7.1 -1.3 7.3 -0.6 7.5 0L0 0Z" fill="#818181"></path></g></svg>