<svg id="visual" viewBox="0 0 606 60" width="606" height="60" xmlns="http://www.w3.org/2000/svg" xmlns:xlink="http://www.w3.org/1999/xlink" version="1.1"><rect x="0" y="0" width="606" height="60" fill="#01002d"></rect><defs><linearGradient id="grad1_0" x1="90.1%" y1="0%" x2="100%" y2="100%"><stop offset="-152%" stop-color="#ff0000" stop-opacity="1"></stop><stop offset="252%" stop-color="#ff0000" stop-opacity="1"></stop></linearGradient></defs><defs><linearGradient id="grad1_1" x1="90.1%" y1="0%" x2="100%" y2="100%"><stop offset="-152%" stop-color="#ff0000" stop-opacity="1"></stop><stop offset="252%" stop-color="#bd004d" stop-opacity="1"></stop></linearGradient></defs><defs><linearGradient id="grad1_2" x1="90.1%" y1="0%" x2="100%" y2="100%"><stop offset="-152%" stop-color="#5a0056" stop-opacity="1"></stop><stop offset="252%" stop-color="#bd004d" stop-opacity="1"></stop></linearGradient></defs><defs><linearGradient id="grad1_3" x1="90.1%" y1="0%" x2="100%" y2="100%"><stop offset="-152%" stop-color="#5a0056" stop-opacity="1"></stop><stop offset="252%" stop-color="#01002d" stop-opacity="1"></stop></linearGradient></defs><defs><linearGradient id="grad2_0" x1="0%" y1="0%" x2="9.9%" y2="100%"><stop offset="-152%" stop-color="#ff0000" stop-opacity="1"></stop><stop offset="252%" stop-color="#ff0000" stop-opacity="1"></stop></linearGradient></defs><defs><linearGradient id="grad2_1" x1="0%" y1="0%" x2="9.9%" y2="100%"><stop offset="-152%" stop-color="#bd004d" stop-opacity="1"></stop><stop offset="252%" stop-color="#ff0000" stop-opacity="1"></stop></linearGradient></defs><defs><linearGradient id="grad2_2" x1="0%" y1="0%" x2="9.9%" y2="100%"><stop offset="-152%" stop-color="#bd004d" stop-opacity="1"></stop><stop offset="252%" stop-color="#5a0056" stop-opacity="1"></stop></linearGradient></defs><defs><linearGradient id="grad2_3" x1="0%" y1="0%" x2="9.9%" y2="100%"><stop offset="-152%" stop-color="#01002d" stop-opacity="1"></stop><stop offset="252%" stop-color="#5a0056" stop-opacity="1"></stop></linearGradient></defs><g transform="translate(606, 0)"><path d="M0 60C-2.9 60.4 -5.9 60.9 -8.5 59.4C-11.2 57.9 -13.5 54.5 -14.9 50.9C-16.4 47.2 -16.9 43.2 -19.9 43.7C-23 44.1 -28.6 49.1 -31.9 49.6C-35.2 50.2 -36.2 46.2 -38 43.8C-39.8 41.4 -42.5 40.5 -44.6 38.6C-46.7 36.7 -48.2 33.9 -47.1 30.3C-46 26.7 -42.2 22.4 -44.6 20.4C-46.9 18.3 -55.3 18.6 -56.6 16.6C-57.9 14.7 -52.1 10.5 -51.5 7.4C-50.9 4.3 -55.4 2.1 -60 0L0 0Z" fill="#290b46"></path><path d="M0 45C-2.2 45.3 -4.4 45.6 -6.4 44.5C-8.4 43.4 -10.1 40.9 -11.2 38.1C-12.3 35.4 -12.7 32.4 -15 32.7C-17.3 33.1 -21.5 36.8 -23.9 37.2C-26.4 37.6 -27.1 34.7 -28.5 32.9C-29.9 31.1 -31.9 30.4 -33.4 29C-35 27.6 -36.2 25.4 -35.3 22.7C-34.5 20 -31.7 16.8 -33.4 15.3C-35.2 13.7 -41.5 13.9 -42.5 12.5C-43.4 11 -39.1 7.9 -38.6 5.6C-38.1 3.2 -41.6 1.6 -45 0L0 0Z" fill="#8d0059"></path><path d="M0 30C-1.5 30.2 -2.9 30.4 -4.3 29.7C-5.6 29 -6.8 27.3 -7.5 25.4C-8.2 23.6 -8.4 21.6 -10 21.8C-11.5 22.1 -14.3 24.6 -15.9 24.8C-17.6 25.1 -18.1 23.1 -19 21.9C-19.9 20.7 -21.2 20.3 -22.3 19.3C-23.3 18.4 -24.1 16.9 -23.6 15.1C-23 13.3 -21.1 11.2 -22.3 10.2C-23.5 9.2 -27.7 9.3 -28.3 8.3C-29 7.3 -26 5.3 -25.7 3.7C-25.4 2.1 -27.7 1.1 -30 0L0 0Z" fill="#e50036"></path><path d="M0 15C-0.7 15.1 -1.5 15.2 -2.1 14.8C-2.8 14.5 -3.4 13.6 -3.7 12.7C-4.1 11.8 -4.2 10.8 -5 10.9C-5.8 11 -7.2 12.3 -8 12.4C-8.8 12.5 -9 11.6 -9.5 11C-10 10.4 -10.6 10.1 -11.1 9.7C-11.7 9.2 -12.1 8.5 -11.8 7.6C-11.5 6.7 -10.6 5.6 -11.1 5.1C-11.7 4.6 -13.8 4.6 -14.2 4.2C-14.5 3.7 -13 2.6 -12.9 1.9C-12.7 1.1 -13.9 0.5 -15 0L0 0Z" fill="#ff0000"></path></g><g transform="translate(0, 60)"><path d="M0 -60C2.4 -55.9 4.9 -51.7 7.1 -49.5C9.4 -47.3 11.4 -46.9 13.8 -47C16.2 -47.1 19 -47.7 22 -48.2C25.1 -48.8 28.4 -49.3 31.4 -48.8C34.3 -48.3 36.8 -46.8 38.6 -44.6C40.5 -42.4 41.8 -39.6 42.3 -36.7C42.9 -33.8 42.8 -30.8 45.4 -29.2C48.1 -27.6 53.5 -27.2 54.6 -24.9C55.7 -22.6 52.6 -18.3 51.8 -15.2C51.1 -12.1 52.7 -10.2 54.4 -7.8C56.2 -5.5 58.1 -2.7 60 0L0 0Z" fill="#290b46"></path><path d="M0 -45C1.8 -41.9 3.7 -38.8 5.3 -37.1C7 -35.4 8.6 -35.2 10.4 -35.3C12.2 -35.3 14.2 -35.8 16.5 -36.2C18.8 -36.6 21.3 -37 23.5 -36.6C25.7 -36.2 27.6 -35.1 29 -33.4C30.4 -31.8 31.3 -29.7 31.7 -27.5C32.2 -25.3 32.1 -23.1 34.1 -21.9C36.1 -20.7 40.1 -20.4 40.9 -18.7C41.8 -17 39.4 -13.7 38.9 -11.4C38.3 -9.1 39.5 -7.6 40.8 -5.9C42.2 -4.1 43.6 -2.1 45 0L0 0Z" fill="#8d0059"></path><path d="M0 -30C1.2 -27.9 2.4 -25.9 3.6 -24.7C4.7 -23.6 5.7 -23.5 6.9 -23.5C8.1 -23.6 9.5 -23.8 11 -24.1C12.5 -24.4 14.2 -24.6 15.7 -24.4C17.1 -24.1 18.4 -23.4 19.3 -22.3C20.3 -21.2 20.9 -19.8 21.2 -18.3C21.4 -16.9 21.4 -15.4 22.7 -14.6C24 -13.8 26.7 -13.6 27.3 -12.5C27.9 -11.3 26.3 -9.2 25.9 -7.6C25.5 -6.1 26.3 -5.1 27.2 -3.9C28.1 -2.7 29.1 -1.4 30 0L0 0Z" fill="#e50036"></path><path d="M0 -15C0.6 -14 1.2 -12.9 1.8 -12.4C2.3 -11.8 2.9 -11.7 3.5 -11.8C4.1 -11.8 4.7 -11.9 5.5 -12.1C6.3 -12.2 7.1 -12.3 7.8 -12.2C8.6 -12.1 9.2 -11.7 9.7 -11.1C10.1 -10.6 10.4 -9.9 10.6 -9.2C10.7 -8.4 10.7 -7.7 11.4 -7.3C12 -6.9 13.4 -6.8 13.6 -6.2C13.9 -5.7 13.1 -4.6 13 -3.8C12.8 -3 13.2 -2.5 13.6 -2C14.1 -1.4 14.5 -0.7 15 0L0 0Z" fill="#ff0000"></path></g></svg>