<svg id="visual" viewBox="0 0 606 60" width="606" height="60" xmlns="http://www.w3.org/2000/svg" xmlns:xlink="http://www.w3.org/1999/xlink" version="1.1"><rect x="0" y="0" width="606" height="60" fill="#860082"></rect><defs><linearGradient id="grad1_0" x1="90.1%" y1="0%" x2="100%" y2="100%"><stop offset="-152%" stop-color="#e30000" stop-opacity="1"></stop><stop offset="252%" stop-color="#e30000" stop-opacity="1"></stop></linearGradient></defs><defs><linearGradient id="grad1_1" x1="90.1%" y1="0%" x2="100%" y2="100%"><stop offset="-152%" stop-color="#e30000" stop-opacity="1"></stop><stop offset="252%" stop-color="#d90040" stop-opacity="1"></stop></linearGradient></defs><defs><linearGradient id="grad1_2" x1="90.1%" y1="0%" x2="100%" y2="100%"><stop offset="-152%" stop-color="#b90068" stop-opacity="1"></stop><stop offset="252%" stop-color="#d90040" stop-opacity="1"></stop></linearGradient></defs><defs><linearGradient id="grad1_3" x1="90.1%" y1="0%" x2="100%" y2="100%"><stop offset="-152%" stop-color="#b90068" stop-opacity="1"></stop><stop offset="252%" stop-color="#860082" stop-opacity="1"></stop></linearGradient></defs><defs><linearGradient id="grad2_0" x1="0%" y1="0%" x2="9.9%" y2="100%"><stop offset="-152%" stop-color="#e30000" stop-opacity="1"></stop><stop offset="252%" stop-color="#e30000" stop-opacity="1"></stop></linearGradient></defs><defs><linearGradient id="grad2_1" x1="0%" y1="0%" x2="9.9%" y2="100%"><stop offset="-152%" stop-color="#d90040" stop-opacity="1"></stop><stop offset="252%" stop-color="#e30000" stop-opacity="1"></stop></linearGradient></defs><defs><linearGradient id="grad2_2" x1="0%" y1="0%" x2="9.9%" y2="100%"><stop offset="-152%" stop-color="#d90040" stop-opacity="1"></stop><stop offset="252%" stop-color="#b90068" stop-opacity="1"></stop></linearGradient></defs><defs><linearGradient id="grad2_3" x1="0%" y1="0%" x2="9.9%" y2="100%"><stop offset="-152%" stop-color="#860082" stop-opacity="1"></stop><stop offset="252%" stop-color="#b90068" stop-opacity="1"></stop></linearGradient></defs><g transform="translate(606, 0)"><path d="M0 48C-2.2 45.9 -4.4 43.8 -6 41.6C-7.6 39.4 -8.6 37.2 -11.3 38.4C-14 39.6 -18.4 44.3 -19.5 42.8C-20.7 41.2 -18.6 33.5 -20.5 32C-22.4 30.4 -28.3 35.1 -30.1 34.8C-32 34.4 -29.8 29 -31 26.8C-32.2 24.7 -36.7 26 -39.5 25.4C-42.4 24.8 -43.5 22.5 -43.7 19.9C-43.8 17.4 -43.1 14.6 -41.3 12.1C-39.5 9.6 -36.7 7.4 -37.6 5.4C-38.6 3.4 -43.3 1.7 -48 0L0 0Z" fill="#a10077"></path><path d="M0 36C-1.6 34.4 -3.3 32.8 -4.5 31.2C-5.7 29.5 -6.4 27.9 -8.5 28.8C-10.5 29.7 -13.8 33.2 -14.6 32.1C-15.5 30.9 -14 25.1 -15.4 24C-16.8 22.8 -21.2 26.4 -22.6 26.1C-24 25.8 -22.3 21.7 -23.2 20.1C-24.1 18.6 -27.5 19.5 -29.7 19.1C-31.8 18.6 -32.6 16.9 -32.7 15C-32.9 13 -32.3 11 -30.9 9.1C-29.6 7.2 -27.5 5.5 -28.2 4.1C-28.9 2.6 -32.5 1.3 -36 0L0 0Z" fill="#cb0055"></path><path d="M0 24C-1.1 22.9 -2.2 21.9 -3 20.8C-3.8 19.7 -4.3 18.6 -5.6 19.2C-7 19.8 -9.2 22.1 -9.8 21.4C-10.3 20.6 -9.3 16.7 -10.3 16C-11.2 15.2 -14.1 17.6 -15.1 17.4C-16 17.2 -14.9 14.5 -15.5 13.4C-16.1 12.4 -18.4 13 -19.8 12.7C-21.2 12.4 -21.7 11.2 -21.8 10C-21.9 8.7 -21.5 7.3 -20.6 6.1C-19.7 4.8 -18.3 3.7 -18.8 2.7C-19.3 1.7 -21.6 0.9 -24 0L0 0Z" fill="#e10028"></path><path d="M0 12C-0.5 11.5 -1.1 10.9 -1.5 10.4C-1.9 9.8 -2.1 9.3 -2.8 9.6C-3.5 9.9 -4.6 11.1 -4.9 10.7C-5.2 10.3 -4.7 8.4 -5.1 8C-5.6 7.6 -7.1 8.8 -7.5 8.7C-8 8.6 -7.4 7.2 -7.7 6.7C-8 6.2 -9.2 6.5 -9.9 6.4C-10.6 6.2 -10.9 5.6 -10.9 5C-11 4.3 -10.8 3.7 -10.3 3C-9.9 2.4 -9.2 1.8 -9.4 1.4C-9.6 0.9 -10.8 0.4 -12 0L0 0Z" fill="#e30000"></path></g><g transform="translate(0, 60)"><path d="M0 -48C2.1 -46.3 4.2 -44.6 6.3 -43.6C8.3 -42.5 10.4 -42.2 12.1 -41.3C13.9 -40.4 15.4 -38.9 17.9 -39.1C20.4 -39.3 23.9 -41.1 26 -40.4C28 -39.7 28.6 -36.4 29.5 -34C30.4 -31.6 31.6 -30 32.5 -28.2C33.4 -26.4 34.1 -24.4 35.3 -22.7C36.5 -21 38.3 -19.5 38.2 -17.4C38.1 -15.4 36.2 -12.6 36.5 -10.7C36.8 -8.8 39.3 -7.6 41.6 -6C43.9 -4.3 45.9 -2.2 48 0L0 0Z" fill="#a10077"></path><path d="M0 -36C1.6 -34.7 3.1 -33.4 4.7 -32.7C6.2 -31.9 7.8 -31.6 9.1 -30.9C10.4 -30.3 11.5 -29.2 13.4 -29.3C15.3 -29.5 17.9 -30.8 19.5 -30.3C21 -29.7 21.4 -27.3 22.1 -25.5C22.8 -23.7 23.7 -22.5 24.4 -21.1C25.1 -19.8 25.6 -18.3 26.5 -17C27.4 -15.7 28.7 -14.7 28.7 -13.1C28.6 -11.5 27.1 -9.5 27.3 -8C27.6 -6.6 29.5 -5.7 31.2 -4.5C32.9 -3.2 34.5 -1.6 36 0L0 0Z" fill="#cb0055"></path><path d="M0 -24C1 -23.1 2.1 -22.3 3.1 -21.8C4.2 -21.3 5.2 -21.1 6.1 -20.6C6.9 -20.2 7.7 -19.5 8.9 -19.6C10.2 -19.6 11.9 -20.5 13 -20.2C14 -19.8 14.3 -18.2 14.7 -17C15.2 -15.8 15.8 -15 16.2 -14.1C16.7 -13.2 17.1 -12.2 17.7 -11.4C18.3 -10.5 19.1 -9.8 19.1 -8.7C19.1 -7.7 18.1 -6.3 18.2 -5.4C18.4 -4.4 19.6 -3.8 20.8 -3C21.9 -2.2 23 -1.1 24 0L0 0Z" fill="#e10028"></path><path d="M0 -12C0.5 -11.6 1 -11.1 1.6 -10.9C2.1 -10.6 2.6 -10.5 3 -10.3C3.5 -10.1 3.8 -9.7 4.5 -9.8C5.1 -9.8 6 -10.3 6.5 -10.1C7 -9.9 7.1 -9.1 7.4 -8.5C7.6 -7.9 7.9 -7.5 8.1 -7C8.4 -6.6 8.5 -6.1 8.8 -5.7C9.1 -5.2 9.6 -4.9 9.6 -4.4C9.5 -3.8 9 -3.2 9.1 -2.7C9.2 -2.2 9.8 -1.9 10.4 -1.5C11 -1.1 11.5 -0.5 12 0L0 0Z" fill="#e30000"></path></g></svg>