<svg id="visual" viewBox="0 0 606 60" width="606" height="60" xmlns="http://www.w3.org/2000/svg" xmlns:xlink="http://www.w3.org/1999/xlink" version="1.1"><rect x="0" y="0" width="606" height="60" fill="#2f9b00"></rect><defs><linearGradient id="grad1_0" x1="90.1%" y1="0%" x2="100%" y2="100%"><stop offset="-152%" stop-color="#ffffff" stop-opacity="1"></stop><stop offset="252%" stop-color="#ffffff" stop-opacity="1"></stop></linearGradient></defs><defs><linearGradient id="grad1_1" x1="90.1%" y1="0%" x2="100%" y2="100%"><stop offset="-152%" stop-color="#ffffff" stop-opacity="1"></stop><stop offset="252%" stop-color="#a1ce8a" stop-opacity="1"></stop></linearGradient></defs><defs><linearGradient id="grad1_2" x1="90.1%" y1="0%" x2="100%" y2="100%"><stop offset="-152%" stop-color="#2f9b00" stop-opacity="1"></stop><stop offset="252%" stop-color="#a1ce8a" stop-opacity="1"></stop></linearGradient></defs><defs><linearGradient id="grad2_0" x1="0%" y1="0%" x2="9.9%" y2="100%"><stop offset="-152%" stop-color="#ffffff" stop-opacity="1"></stop><stop offset="252%" stop-color="#ffffff" stop-opacity="1"></stop></linearGradient></defs><defs><linearGradient id="grad2_1" x1="0%" y1="0%" x2="9.9%" y2="100%"><stop offset="-152%" stop-color="#a1ce8a" stop-opacity="1"></stop><stop offset="252%" stop-color="#ffffff" stop-opacity="1"></stop></linearGradient></defs><defs><linearGradient id="grad2_2" x1="0%" y1="0%" x2="9.9%" y2="100%"><stop offset="-152%" stop-color="#a1ce8a" stop-opacity="1"></stop><stop offset="252%" stop-color="#2f9b00" stop-opacity="1"></stop></linearGradient></defs><g transform="translate(606, 0)"><path d="M0 60C-3.2 57.6 -6.5 55.1 -9.4 53.2C-12.3 51.2 -14.9 49.7 -17.8 48.9C-20.7 48 -23.8 47.8 -27.5 47.6C-31.2 47.4 -35.3 47.3 -37.9 45.2C-40.5 43.1 -41.6 39.2 -42.1 35.4C-42.7 31.5 -42.7 27.8 -42.4 24.5C-42.2 21.2 -41.7 18.5 -45.1 16.4C-48.5 14.4 -55.9 13 -59.1 10.4C-62.2 7.8 -61.1 3.9 -60 0L0 0Z" fill="#6fb450"></path><path d="M0 40C-2.2 38.4 -4.3 36.8 -6.3 35.5C-8.2 34.1 -9.9 33.1 -11.9 32.6C-13.8 32 -15.9 31.9 -18.3 31.8C-20.8 31.6 -23.5 31.5 -25.3 30.1C-27 28.8 -27.7 26.1 -28.1 23.6C-28.4 21 -28.5 18.5 -28.3 16.3C-28.1 14.2 -27.8 12.3 -30.1 10.9C-32.4 9.6 -37.3 8.7 -39.4 6.9C-41.5 5.2 -40.7 2.6 -40 0L0 0Z" fill="#d0e6c4"></path><path d="M0 20C-1.1 19.2 -2.2 18.4 -3.1 17.7C-4.1 17.1 -5 16.6 -5.9 16.3C-6.9 16 -7.9 15.9 -9.2 15.9C-10.4 15.8 -11.8 15.8 -12.6 15.1C-13.5 14.4 -13.9 13.1 -14 11.8C-14.2 10.5 -14.2 9.3 -14.1 8.2C-14.1 7.1 -13.9 6.2 -15 5.5C-16.2 4.8 -18.6 4.3 -19.7 3.5C-20.7 2.6 -20.4 1.3 -20 0L0 0Z" fill="#ffffff"></path></g><g transform="translate(0, 60)"><path d="M0 -60C2.8 -54.9 5.5 -49.8 8.5 -48.3C11.5 -46.7 14.8 -48.8 18.1 -49.8C21.5 -50.8 25 -50.6 29 -50.2C33 -49.9 37.6 -49.3 37.9 -45.2C38.2 -41 34.2 -33.3 36.8 -30.9C39.3 -28.4 48.5 -31.3 52 -30C55.4 -28.7 53.1 -23.2 52.6 -19.2C52.2 -15.1 53.6 -12.7 55.1 -9.7C56.7 -6.8 58.3 -3.4 60 0L0 0Z" fill="#6fb450"></path><path d="M0 -40C1.8 -36.6 3.7 -33.2 5.7 -32.2C7.7 -31.2 9.8 -32.6 12.1 -33.2C14.3 -33.8 16.6 -33.7 19.3 -33.5C22 -33.2 25.1 -32.9 25.3 -30.1C25.5 -27.4 22.8 -22.2 24.5 -20.6C26.2 -18.9 32.4 -20.9 34.6 -20C36.9 -19.1 35.4 -15.4 35.1 -12.8C34.8 -10.1 35.7 -8.4 36.8 -6.5C37.8 -4.5 38.9 -2.3 40 0L0 0Z" fill="#d0e6c4"></path><path d="M0 -20C0.9 -18.3 1.8 -16.6 2.8 -16.1C3.8 -15.6 4.9 -16.3 6 -16.6C7.2 -16.9 8.3 -16.9 9.7 -16.7C11 -16.6 12.5 -16.4 12.6 -15.1C12.7 -13.7 11.4 -11.1 12.3 -10.3C13.1 -9.5 16.2 -10.4 17.3 -10C18.5 -9.6 17.7 -7.7 17.5 -6.4C17.4 -5 17.9 -4.2 18.4 -3.2C18.9 -2.3 19.4 -1.1 20 0L0 0Z" fill="#ffffff"></path></g></svg>